<?xml version="1.0" encoding="UTF-8"?>
<svg xmlns="http://www.w3.org/2000/svg" xmlns:xlink="http://www.w3.org/1999/xlink" width="360pt" height="262pt" viewBox="0 0 360 262" version="1.1">
<g id="surface66">
<path style=" stroke:none;fill-rule:evenodd;fill:rgb(27.539483%,39.301137%,80.999466%);fill-opacity:0.1;" d="M 18.566406 168.457031 L 192.765625 91.421875 L 203.832031 86.183594 L 212.984375 78.054688 L 219.488281 67.6875 L 222.828125 55.914062 L 222.730469 43.671875 L 219.207031 31.949219 L 212.535156 21.6875 L 203.257812 13.703125 L 192.113281 8.644531 L 179.996094 6.910156 L 167.878906 8.644531 L 156.734375 13.707031 L 147.453125 21.691406 Z M 18.566406 168.457031 "/>
<path style=" stroke:none;fill-rule:evenodd;fill:rgb(27.539483%,39.301137%,80.999466%);fill-opacity:0.1;" d="M 180.054688 243.664062 L 180 93.351562 L 18.566406 168.457031 Z M 180.054688 243.664062 "/>
<path style=" stroke:none;fill-rule:evenodd;fill:rgb(27.539483%,39.301137%,80.999466%);fill-opacity:0.1;" d="M 180.054688 243.664062 L 341.433594 168.433594 L 180 93.351562 Z M 180.054688 243.664062 "/>
<path style=" stroke:none;fill-rule:evenodd;fill:rgb(27.539483%,39.301137%,80.999466%);fill-opacity:0.1;" d="M 180.054688 243.664062 L 199.878906 241.683594 L 204.878906 241.0625 L 209.84375 240.199219 L 214.761719 239.101562 L 219.621094 237.769531 L 224.410156 236.203125 L 229.117188 234.410156 L 233.734375 232.390625 L 298.285156 202.296875 L 302.800781 200.058594 L 307.199219 197.605469 L 311.480469 194.945312 L 315.625 192.082031 L 319.628906 189.023438 L 323.480469 185.773438 L 327.167969 182.34375 L 341.433594 168.433594 L 180 93.351562 Z M 180.054688 243.664062 "/>
<path style="fill:none;stroke-width:1;stroke-linecap:square;stroke-linejoin:miter;stroke:rgb(14.999619%,22.700847%,50.000763%);stroke-opacity:0.7;stroke-miterlimit:3.25;" d="M 168.765625 91.664062 L 167.234375 91.421875 L 156.167969 86.1875 L 147.015625 78.058594 L 140.507812 67.691406 L 137.167969 55.917969 L 137.261719 43.675781 L 140.785156 31.957031 L 147.453125 21.691406 L 156.734375 13.707031 L 167.878906 8.644531 L 179.996094 6.910156 L 192.113281 8.644531 L 203.257812 13.703125 L 212.535156 21.6875 L 219.207031 31.949219 L 222.730469 43.671875 L 222.828125 55.914062 L 219.488281 67.6875 L 212.984375 78.054688 L 207.683594 82.761719 "/>
<path style=" stroke:none;fill-rule:evenodd;fill:rgb(14.999619%,22.700847%,50.000763%);fill-opacity:0.7;" d="M 206.984375 76.902344 L 207.007812 77.589844 L 207.128906 79.226562 L 207.25 80.191406 L 207.40625 81.136719 L 207.621094 81.988281 L 207.894531 82.648438 L 208.269531 83.179688 L 208.851562 83.8125 L 209.578125 84.492188 L 210.34375 85.167969 L 211.714844 86.285156 L 212.3125 86.75 L 191.234375 91.664062 Z M 206.984375 76.902344 "/>
<path style="fill:none;stroke-width:1;stroke-linecap:square;stroke-linejoin:miter;stroke:rgb(14.999619%,22.700847%,50.000763%);stroke-opacity:0.7;stroke-miterlimit:3.25;" d="M 168.6875 94.472656 L 160.175781 95.316406 L 155.175781 95.933594 L 150.207031 96.789062 L 145.289062 97.882812 L 140.429688 99.214844 L 135.640625 100.777344 L 130.929688 102.566406 L 126.3125 104.582031 L 61.738281 134.625 L 57.222656 136.859375 L 52.820312 139.308594 L 48.539062 141.964844 L 44.390625 144.828125 L 40.636719 147.695312 "/>
<path style=" stroke:none;fill-rule:evenodd;fill:rgb(14.999619%,22.700847%,50.000763%);fill-opacity:0.7;" d="M 38.34375 142.34375 L 38.539062 143.003906 L 39.054688 144.5625 L 39.410156 145.464844 L 39.792969 146.34375 L 40.214844 147.113281 L 40.640625 147.6875 L 41.136719 148.113281 L 41.855469 148.582031 L 42.726562 149.0625 L 43.632812 149.53125 L 45.238281 150.277344 L 45.933594 150.578125 L 26.710938 160.527344 Z M 38.34375 142.34375 "/>
<path style="fill:none;stroke-width:1;stroke-linecap:square;stroke-linejoin:miter;stroke:rgb(14.999619%,22.700847%,50.000763%);stroke-opacity:0.7;stroke-miterlimit:3.25;" d="M 171.855469 101.28125 L 165.726562 107.25 L 162.035156 110.675781 L 158.179688 113.921875 L 154.175781 116.980469 L 150.027344 119.839844 L 145.746094 122.5 L 141.34375 124.949219 L 136.828125 127.183594 L 72.253906 157.226562 L 67.636719 159.238281 L 62.925781 161.03125 L 58.136719 162.59375 L 53.277344 163.921875 L 48.664062 164.949219 "/>
<path style=" stroke:none;fill-rule:evenodd;fill:rgb(14.999619%,22.700847%,50.000763%);fill-opacity:0.7;" d="M 49.898438 159.257812 L 49.671875 159.910156 L 49.191406 161.480469 L 48.957031 162.425781 L 48.761719 163.363281 L 48.65625 164.234375 L 48.671875 164.949219 L 48.828125 165.582031 L 49.144531 166.378906 L 49.574219 167.273438 L 50.042969 168.183594 L 50.917969 169.722656 L 51.308594 170.371094 L 29.878906 167.335938 Z M 49.898438 159.257812 "/>
<path style="fill:none;stroke-width:1;stroke-linecap:square;stroke-linejoin:miter;stroke:rgb(14.999619%,22.700847%,50.000763%);stroke-opacity:0.7;stroke-miterlimit:3.25;" d="M 28.871094 173.253906 L 152.574219 230.867188 "/>
<path style=" stroke:none;fill-rule:evenodd;fill:rgb(14.999619%,22.700847%,50.000763%);fill-opacity:0.7;" d="M 148.507812 235.027344 L 149.042969 234.59375 L 150.289062 233.519531 L 150.988281 232.847656 L 151.65625 232.160156 L 152.207031 231.480469 L 152.574219 230.867188 L 152.78125 230.246094 L 152.941406 229.402344 L 153.050781 228.417969 L 153.140625 227.398438 L 153.21875 225.628906 L 153.234375 224.871094 L 169.75 238.863281 Z M 148.507812 235.027344 "/>
<path style="fill:none;stroke-width:1;stroke-linecap:square;stroke-linejoin:miter;stroke:rgb(14.999619%,22.700847%,50.000763%);stroke-opacity:0.7;stroke-miterlimit:3.25;" d="M 180.003906 104.71875 L 180.042969 213.351562 "/>
<path style=" stroke:none;fill-rule:evenodd;fill:rgb(14.999619%,22.700847%,50.000763%);fill-opacity:0.7;" d="M 174.550781 211.421875 L 175.171875 211.726562 L 176.667969 212.398438 L 177.574219 212.75 L 178.480469 213.0625 L 179.332031 213.277344 L 180.042969 213.351562 L 180.691406 213.277344 L 181.519531 213.0625 L 182.464844 212.75 L 183.425781 212.398438 L 185.058594 211.722656 L 185.753906 211.417969 L 180.050781 232.296875 Z M 174.550781 211.421875 "/>
<path style="fill:none;stroke-width:1;stroke-linecap:square;stroke-linejoin:miter;stroke:rgb(14.999619%,22.700847%,50.000763%);stroke-opacity:0.7;stroke-miterlimit:3.25;" d="M 188.191406 235.726562 L 194.316406 229.75 L 198.007812 226.320312 L 201.859375 223.074219 L 205.863281 220.011719 L 210.007812 217.148438 L 214.285156 214.488281 L 218.6875 212.035156 L 223.199219 209.796875 L 287.753906 179.703125 L 292.371094 177.6875 L 297.078125 175.890625 L 301.867188 174.328125 L 306.726562 172.992188 L 311.339844 171.960938 "/>
<path style=" stroke:none;fill-rule:evenodd;fill:rgb(14.999619%,22.700847%,50.000763%);fill-opacity:0.7;" d="M 310.109375 177.652344 L 310.332031 177 L 310.8125 175.429688 L 311.046875 174.488281 L 311.242188 173.546875 L 311.347656 172.679688 L 311.328125 171.964844 L 311.175781 171.332031 L 310.859375 170.53125 L 310.425781 169.636719 L 309.957031 168.730469 L 309.082031 167.191406 L 308.691406 166.542969 L 330.121094 169.5625 Z M 310.109375 177.652344 "/>
<path style="fill:none;stroke-width:1;stroke-linecap:square;stroke-linejoin:miter;stroke:rgb(14.999619%,22.700847%,50.000763%);stroke-opacity:0.7;stroke-miterlimit:3.25;" d="M 191.363281 242.53125 L 199.878906 241.683594 L 204.878906 241.0625 L 209.84375 240.199219 L 214.761719 239.101562 L 219.621094 237.769531 L 224.410156 236.203125 L 229.117188 234.410156 L 233.734375 232.390625 L 298.285156 202.296875 L 302.800781 200.058594 L 307.199219 197.605469 L 311.480469 194.945312 L 315.625 192.082031 L 319.378906 189.210938 "/>
<path style=" stroke:none;fill-rule:evenodd;fill:rgb(14.999619%,22.700847%,50.000763%);fill-opacity:0.7;" d="M 321.675781 194.5625 L 321.480469 193.898438 L 320.960938 192.34375 L 320.605469 191.4375 L 320.222656 190.558594 L 319.800781 189.789062 L 319.375 189.21875 L 318.878906 188.792969 L 318.160156 188.324219 L 317.289062 187.847656 L 316.378906 187.378906 L 314.773438 186.632812 L 314.082031 186.332031 L 333.296875 176.367188 Z M 321.675781 194.5625 "/>
<path style="fill:none;stroke-width:1;stroke-linecap:square;stroke-linejoin:miter;stroke:rgb(14.999619%,22.700847%,50.000763%);stroke-opacity:0.7;stroke-miterlimit:3.25;" d="M 331.125 163.636719 L 207.484375 106.132812 "/>
<path style=" stroke:none;fill-rule:evenodd;fill:rgb(14.999619%,22.700847%,50.000763%);fill-opacity:0.7;" d="M 211.550781 101.96875 L 211.015625 102.402344 L 209.769531 103.476562 L 209.070312 104.148438 L 208.402344 104.835938 L 207.851562 105.519531 L 207.484375 106.132812 L 207.28125 106.75 L 207.121094 107.59375 L 207.007812 108.582031 L 206.921875 109.601562 L 206.84375 111.367188 L 206.828125 112.125 L 190.308594 98.144531 Z M 211.550781 101.96875 "/>
<path style="fill-rule:evenodd;fill:rgb(65.859464%,70.9514%,88.999771%);fill-opacity:1;stroke-width:1;stroke-linecap:square;stroke-linejoin:miter;stroke:rgb(9.900053%,14.982834%,33.000687%);stroke-opacity:0.95;stroke-miterlimit:3.25;" d="M 191.367188 93.351562 C 191.367188 96.363281 190.167969 99.253906 188.039062 101.386719 C 185.90625 103.519531 183.015625 104.71875 180 104.71875 C 176.984375 104.71875 174.09375 103.519531 171.960938 101.386719 C 169.832031 99.253906 168.632812 96.363281 168.632812 93.351562 C 168.632812 90.335938 169.832031 87.445312 171.960938 85.3125 C 174.09375 83.179688 176.984375 81.984375 180 81.984375 C 183.015625 81.984375 185.90625 83.179688 188.039062 85.3125 C 190.167969 87.445312 191.367188 90.335938 191.367188 93.351562 Z M 191.367188 93.351562 "/>
<path style="fill-rule:evenodd;fill:rgb(65.859464%,70.9514%,88.999771%);fill-opacity:1;stroke-width:1;stroke-linecap:square;stroke-linejoin:miter;stroke:rgb(9.900053%,14.982834%,33.000687%);stroke-opacity:0.95;stroke-miterlimit:3.25;" d="M 191.421875 243.664062 C 191.421875 246.675781 190.222656 249.566406 188.089844 251.699219 C 185.960938 253.832031 183.066406 255.03125 180.054688 255.03125 C 177.039062 255.03125 174.148438 253.832031 172.015625 251.699219 C 169.882812 249.566406 168.6875 246.675781 168.6875 243.664062 C 168.6875 240.648438 169.882812 237.757812 172.015625 235.625 C 174.148438 233.492188 177.039062 232.296875 180.054688 232.296875 C 183.066406 232.296875 185.960938 233.492188 188.089844 235.625 C 190.222656 237.757812 191.421875 240.648438 191.421875 243.664062 Z M 191.421875 243.664062 "/>
<path style="fill-rule:evenodd;fill:rgb(65.859464%,70.9514%,88.999771%);fill-opacity:1;stroke-width:1;stroke-linecap:square;stroke-linejoin:miter;stroke:rgb(9.900053%,14.982834%,33.000687%);stroke-opacity:0.95;stroke-miterlimit:3.25;" d="M 29.933594 168.457031 C 29.933594 171.472656 28.738281 174.363281 26.605469 176.496094 C 24.472656 178.625 21.582031 179.824219 18.566406 179.824219 C 15.550781 179.824219 12.660156 178.625 10.53125 176.496094 C 8.398438 174.363281 7.199219 171.472656 7.199219 168.457031 C 7.199219 165.441406 8.398438 162.550781 10.53125 160.417969 C 12.660156 158.289062 15.550781 157.089844 18.566406 157.089844 C 21.582031 157.089844 24.472656 158.289062 26.605469 160.417969 C 28.738281 162.550781 29.933594 165.441406 29.933594 168.457031 Z M 29.933594 168.457031 "/>
<path style="fill-rule:evenodd;fill:rgb(65.859464%,70.9514%,88.999771%);fill-opacity:1;stroke-width:1;stroke-linecap:square;stroke-linejoin:miter;stroke:rgb(9.900053%,14.982834%,33.000687%);stroke-opacity:0.95;stroke-miterlimit:3.25;" d="M 352.800781 168.433594 C 352.800781 171.445312 351.601562 174.339844 349.46875 176.46875 C 347.339844 178.601562 344.449219 179.800781 341.433594 179.800781 C 338.417969 179.800781 335.527344 178.601562 333.394531 176.46875 C 331.261719 174.339844 330.066406 171.445312 330.066406 168.433594 C 330.066406 165.417969 331.261719 162.527344 333.394531 160.394531 C 335.527344 158.261719 338.417969 157.066406 341.433594 157.066406 C 344.449219 157.066406 347.339844 158.261719 349.46875 160.394531 C 351.601562 162.527344 352.800781 165.417969 352.800781 168.433594 Z M 352.800781 168.433594 "/>
</g>
</svg>
