<?xml version="1.0" encoding="UTF-8"?>
<svg xmlns="http://www.w3.org/2000/svg" xmlns:xlink="http://www.w3.org/1999/xlink" width="360pt" height="124pt" viewBox="0 0 360 124" version="1.1">
<g id="surface56">
<path style=" stroke:none;fill-rule:evenodd;fill:rgb(27.539483%,39.301137%,80.999466%);fill-opacity:0.1;" d="M 290.238281 116.273438 L 305.863281 116.152344 L 320.832031 111.652344 L 333.933594 103.140625 L 344.125 91.292969 L 350.585938 77.0625 L 352.800781 61.59375 L 350.585938 46.125 L 344.125 31.894531 L 333.933594 20.046875 L 320.832031 11.535156 L 305.863281 7.035156 L 290.238281 6.910156 L 21.710938 61.59375 Z M 290.238281 116.273438 "/>
<path style=" stroke:none;fill-rule:evenodd;fill:rgb(27.539483%,39.301137%,80.999466%);fill-opacity:0.1;" d="M 87.929688 77.042969 L 176.21875 77.042969 L 182.464844 76.894531 L 188.695312 76.445312 L 194.894531 75.695312 L 201.054688 74.648438 L 207.152344 73.308594 L 213.183594 71.671875 L 219.125 69.753906 L 242.4375 61.59375 L 219.125 53.433594 L 213.183594 51.511719 L 207.152344 49.878906 L 201.054688 48.539062 L 194.894531 47.492188 L 188.695312 46.742188 L 182.464844 46.292969 L 176.21875 46.144531 L 87.929688 46.144531 L 81.6875 46.292969 L 75.457031 46.742188 L 69.253906 47.492188 L 63.097656 48.539062 L 56.996094 49.878906 L 50.96875 51.511719 L 45.023438 53.433594 L 21.710938 61.59375 L 45.023438 69.753906 L 50.96875 71.671875 L 56.996094 73.308594 L 63.097656 74.648438 L 69.253906 75.695312 L 75.457031 76.445312 L 81.6875 76.894531 Z M 87.929688 77.042969 "/>
<path style="fill:none;stroke-width:1;stroke-linecap:square;stroke-linejoin:miter;stroke:rgb(14.999619%,22.700847%,50.000763%);stroke-opacity:0.7;stroke-miterlimit:3.25;" d="M 244.59375 47.25 L 244.90625 45.292969 L 251.589844 31.167969 L 261.96875 19.484375 L 275.203125 11.175781 L 290.238281 6.910156 L 305.863281 7.035156 L 320.832031 11.535156 L 333.933594 20.046875 L 344.125 31.894531 L 350.585938 46.125 L 352.800781 61.59375 L 350.585938 77.0625 L 344.125 91.292969 L 333.933594 103.140625 L 320.832031 111.652344 L 305.863281 116.152344 L 290.238281 116.273438 L 275.203125 112.011719 L 261.96875 103.703125 L 255.957031 96.9375 "/>
<path style=" stroke:none;fill-rule:evenodd;fill:rgb(14.999619%,22.700847%,50.000763%);fill-opacity:0.7;" d="M 263.441406 96.042969 L 262.5625 96.078125 L 260.472656 96.230469 L 259.242188 96.382812 L 258.035156 96.582031 L 256.949219 96.859375 L 256.105469 97.210938 L 255.425781 97.683594 L 254.621094 98.429688 L 253.75 99.355469 L 252.886719 100.332031 L 251.457031 102.085938 L 250.867188 102.847656 L 244.59375 75.9375 Z M 263.441406 96.042969 "/>
<path style="fill:none;stroke-width:1;stroke-linecap:square;stroke-linejoin:miter;stroke:rgb(14.999619%,22.700847%,50.000763%);stroke-opacity:0.7;stroke-miterlimit:3.25;" d="M 227.925781 61.59375 L 60.414062 61.59375 "/>
<path style=" stroke:none;fill-rule:evenodd;fill:rgb(14.999619%,22.700847%,50.000763%);fill-opacity:0.7;" d="M 62.878906 54.585938 L 62.488281 55.375 L 61.628906 57.285156 L 61.179688 58.441406 L 60.777344 59.597656 L 60.507812 60.683594 L 60.414062 61.59375 L 60.507812 62.417969 L 60.777344 63.480469 L 61.179688 64.683594 L 61.628906 65.910156 L 62.488281 68 L 62.878906 68.886719 L 36.226562 61.59375 Z M 62.878906 54.585938 "/>
<path style="fill:none;stroke-width:1;stroke-linecap:square;stroke-linejoin:miter;stroke:rgb(14.999619%,22.700847%,50.000763%);stroke-opacity:0.7;stroke-miterlimit:3.25;" d="M 228.738281 66.386719 L 219.125 69.753906 L 213.183594 71.671875 L 207.152344 73.308594 L 201.054688 74.648438 L 194.894531 75.695312 L 188.695312 76.445312 L 182.464844 76.894531 L 176.21875 77.042969 L 87.929688 77.042969 L 81.6875 76.894531 L 75.457031 76.445312 L 69.253906 75.695312 L 63.097656 74.648438 L 58.46875 73.628906 "/>
<path style=" stroke:none;fill-rule:evenodd;fill:rgb(14.999619%,22.700847%,50.000763%);fill-opacity:0.7;" d="M 62.9375 67.6875 L 62.332031 68.324219 L 60.9375 69.890625 L 60.160156 70.859375 L 59.433594 71.84375 L 58.847656 72.796875 L 58.484375 73.636719 L 58.328125 74.453125 L 58.269531 75.546875 L 58.292969 76.816406 L 58.351562 78.121094 L 58.546875 80.371094 L 58.652344 81.332031 L 35.410156 66.386719 Z M 62.9375 67.6875 "/>
<path style="fill:none;stroke-width:1;stroke-linecap:square;stroke-linejoin:miter;stroke:rgb(14.999619%,22.700847%,50.000763%);stroke-opacity:0.7;stroke-miterlimit:3.25;" d="M 35.410156 56.800781 L 45.023438 53.433594 L 50.96875 51.511719 L 56.996094 49.878906 L 63.097656 48.539062 L 69.253906 47.492188 L 75.457031 46.742188 L 81.6875 46.292969 L 87.929688 46.144531 L 176.21875 46.144531 L 182.464844 46.292969 L 188.695312 46.742188 L 194.894531 47.492188 L 201.054688 48.539062 L 205.679688 49.554688 "/>
<path style=" stroke:none;fill-rule:evenodd;fill:rgb(14.999619%,22.700847%,50.000763%);fill-opacity:0.7;" d="M 201.210938 55.5 L 201.820312 54.859375 L 203.214844 53.296875 L 203.988281 52.328125 L 204.71875 51.34375 L 205.300781 50.390625 L 205.664062 49.550781 L 205.820312 48.734375 L 205.878906 47.640625 L 205.859375 46.371094 L 205.796875 45.066406 L 205.601562 42.816406 L 205.496094 41.855469 L 228.738281 56.800781 Z M 201.210938 55.5 "/>
<path style="fill-rule:evenodd;fill:rgb(65.859464%,70.9514%,88.999771%);fill-opacity:1;stroke-width:1;stroke-linecap:square;stroke-linejoin:miter;stroke:rgb(9.900053%,14.982834%,33.000687%);stroke-opacity:0.95;stroke-miterlimit:3.25;" d="M 256.949219 61.59375 C 256.949219 65.441406 255.421875 69.132812 252.699219 71.855469 C 249.976562 74.578125 246.285156 76.105469 242.4375 76.105469 C 238.589844 76.105469 234.898438 74.578125 232.175781 71.855469 C 229.453125 69.132812 227.925781 65.441406 227.925781 61.59375 C 227.925781 57.746094 229.453125 54.054688 232.175781 51.332031 C 234.898438 48.609375 238.589844 47.082031 242.4375 47.082031 C 246.285156 47.082031 249.976562 48.609375 252.699219 51.332031 C 255.421875 54.054688 256.949219 57.746094 256.949219 61.59375 Z M 256.949219 61.59375 "/>
<path style="fill-rule:evenodd;fill:rgb(65.859464%,70.9514%,88.999771%);fill-opacity:1;stroke-width:1;stroke-linecap:square;stroke-linejoin:miter;stroke:rgb(9.900053%,14.982834%,33.000687%);stroke-opacity:0.95;stroke-miterlimit:3.25;" d="M 36.226562 61.59375 C 36.226562 65.441406 34.695312 69.132812 31.972656 71.855469 C 29.253906 74.578125 25.5625 76.105469 21.710938 76.105469 C 17.863281 76.105469 14.171875 74.578125 11.449219 71.855469 C 8.730469 69.132812 7.199219 65.441406 7.199219 61.59375 C 7.199219 57.746094 8.730469 54.054688 11.449219 51.332031 C 14.171875 48.609375 17.863281 47.082031 21.710938 47.082031 C 25.5625 47.082031 29.253906 48.609375 31.972656 51.332031 C 34.695312 54.054688 36.226562 57.746094 36.226562 61.59375 Z M 36.226562 61.59375 "/>
</g>
</svg>
