<?xml version="1.0" encoding="UTF-8"?>
<svg xmlns="http://www.w3.org/2000/svg" xmlns:xlink="http://www.w3.org/1999/xlink" width="360pt" height="224pt" viewBox="0 0 360 224" version="1.1">
<g id="surface51">
<path style=" stroke:none;fill-rule:evenodd;fill:rgb(27.539483%,39.301137%,80.999466%);fill-opacity:0.1;" d="M 132.316406 213.9375 L 147.597656 129.640625 L 147.976562 127.46875 L 147.902344 125.269531 L 147.382812 123.128906 L 146.433594 121.140625 L 145.09375 119.390625 L 143.429688 117.953125 L 141.5 116.882812 L 139.398438 116.234375 L 137.203125 116.027344 L 135.015625 116.277344 L 132.925781 116.96875 L 131.019531 118.074219 L 129.382812 119.546875 L 128.082031 121.324219 L 127.171875 123.332031 L 126.691406 125.480469 L 126.664062 127.683594 L 128.820312 196.398438 L 128.917969 198.398438 L 129.105469 200.394531 L 129.394531 202.375 L 129.773438 204.34375 L 130.25 206.289062 Z M 132.316406 213.9375 "/>
<path style=" stroke:none;fill-rule:evenodd;fill:rgb(27.539483%,39.301137%,80.999466%);fill-opacity:0.1;" d="M 132.316406 213.9375 L 135.472656 206.671875 L 136.222656 204.816406 L 136.886719 202.925781 L 137.460938 201.003906 L 137.9375 199.058594 L 138.324219 197.09375 L 138.613281 195.109375 L 138.808594 193.117188 L 140.871094 164.871094 L 140.96875 162.871094 L 140.972656 160.867188 L 140.878906 158.867188 L 140.6875 156.871094 L 140.398438 154.890625 L 140.019531 152.921875 L 139.542969 150.976562 L 137.476562 143.328125 L 104.132812 197.972656 Z M 132.316406 213.9375 "/>
<path style=" stroke:none;fill-rule:evenodd;fill:rgb(27.539483%,39.301137%,80.999466%);fill-opacity:0.1;" d="M 97.691406 199.445312 L 98.300781 199.433594 L 98.90625 199.394531 L 99.507812 199.324219 L 100.105469 199.222656 L 100.699219 199.09375 L 101.285156 198.941406 L 101.867188 198.753906 L 104.132812 197.972656 L 137.476562 143.328125 L 82.683594 197.878906 L 84.945312 198.679688 L 85.523438 198.871094 L 86.109375 199.03125 L 86.699219 199.164062 L 87.296875 199.269531 L 87.902344 199.34375 L 88.503906 199.390625 L 89.113281 199.40625 Z M 97.691406 199.445312 "/>
<path style=" stroke:none;fill-rule:evenodd;fill:rgb(27.539483%,39.301137%,80.999466%);fill-opacity:0.1;" d="M 104.132812 197.972656 L 61.015625 168.472656 L 82.683594 197.878906 Z M 104.132812 197.972656 "/>
<path style=" stroke:none;fill-rule:evenodd;fill:rgb(27.539483%,39.301137%,80.999466%);fill-opacity:0.1;" d="M 61.015625 168.472656 L 137.476562 143.328125 L 73.476562 150.664062 L 71.503906 152.085938 L 71.011719 152.457031 L 70.539062 152.851562 L 70.085938 153.265625 L 69.65625 153.703125 L 69.242188 154.164062 L 68.855469 154.640625 L 68.492188 155.136719 L 63.507812 162.257812 L 63.164062 162.769531 L 62.851562 163.296875 L 62.5625 163.839844 L 62.296875 164.398438 L 62.0625 164.964844 L 61.851562 165.542969 L 61.671875 166.132812 Z M 61.015625 168.472656 "/>
<path style=" stroke:none;fill-rule:evenodd;fill:rgb(27.539483%,39.301137%,80.999466%);fill-opacity:0.1;" d="M 61.015625 168.472656 L 62.988281 167.050781 L 63.480469 166.679688 L 63.953125 166.289062 L 64.402344 165.871094 L 64.835938 165.433594 L 65.246094 164.976562 L 65.636719 164.496094 L 66 164.003906 L 70.984375 156.878906 L 71.324219 156.367188 L 71.640625 155.839844 L 71.929688 155.296875 L 72.191406 154.742188 L 72.429688 154.171875 L 72.636719 153.59375 L 72.820312 153.007812 L 73.476562 150.664062 L 30.808594 136.125 Z M 61.015625 168.472656 "/>
<path style=" stroke:none;fill-rule:evenodd;fill:rgb(27.539483%,39.301137%,80.999466%);fill-opacity:0.1;" d="M 61.015625 168.472656 L 30.808594 136.125 L 10.304688 126.789062 L 12.125 128.535156 L 12.59375 128.964844 L 13.085938 129.371094 Z M 61.015625 168.472656 "/>
<path style=" stroke:none;fill-rule:evenodd;fill:rgb(27.539483%,39.301137%,80.999466%);fill-opacity:0.1;" d="M 30.808594 136.125 L 60.007812 79.839844 L 10.304688 126.789062 Z M 30.808594 136.125 "/>
<path style=" stroke:none;fill-rule:evenodd;fill:rgb(27.539483%,39.301137%,80.999466%);fill-opacity:0.1;" d="M 137.476562 143.328125 L 60.007812 79.839844 L 61.5 82.554688 L 61.890625 83.230469 L 62.316406 83.890625 L 62.773438 84.527344 L 63.261719 85.140625 L 63.777344 85.726562 L 64.320312 86.292969 L 64.890625 86.828125 L 73.125 94.226562 L 73.722656 94.734375 L 74.339844 95.214844 Z M 137.476562 143.328125 "/>
<path style=" stroke:none;fill-rule:evenodd;fill:rgb(27.539483%,39.301137%,80.999466%);fill-opacity:0.1;" d="M 80.597656 98.332031 L 79.105469 95.617188 L 78.714844 94.941406 L 78.289062 94.28125 L 77.832031 93.648438 L 77.34375 93.03125 L 42.953125 50.652344 L 60.007812 79.839844 Z M 80.597656 98.332031 "/>
<path style=" stroke:none;fill-rule:evenodd;fill:rgb(27.539483%,39.301137%,80.999466%);fill-opacity:0.1;" d="M 60.007812 79.839844 L 31.464844 24.113281 L 31.699219 27.339844 L 31.777344 28.152344 L 31.894531 28.964844 L 32.050781 29.765625 L 32.246094 30.5625 L 32.476562 31.347656 L 32.746094 32.121094 L 33.054688 32.878906 L 37.648438 43.496094 L 37.992188 44.238281 L 38.371094 44.964844 L 38.78125 45.671875 Z M 60.007812 79.839844 "/>
<path style=" stroke:none;fill-rule:evenodd;fill:rgb(27.539483%,39.301137%,80.999466%);fill-opacity:0.1;" d="M 42.953125 50.652344 L 88.460938 29.304688 L 31.464844 24.113281 Z M 42.953125 50.652344 "/>
<path style=" stroke:none;fill-rule:evenodd;fill:rgb(27.539483%,39.301137%,80.999466%);fill-opacity:0.1;" d="M 60.007812 79.839844 L 88.460938 29.304688 L 80.152344 10.015625 Z M 60.007812 79.839844 "/>
<path style=" stroke:none;fill-rule:evenodd;fill:rgb(27.539483%,39.301137%,80.999466%);fill-opacity:0.1;" d="M 88.460938 29.304688 L 141.832031 22.699219 L 80.152344 10.015625 Z M 88.460938 29.304688 "/>
<path style=" stroke:none;fill-rule:evenodd;fill:rgb(27.539483%,39.301137%,80.999466%);fill-opacity:0.1;" d="M 88.460938 29.304688 L 163.199219 20.761719 L 160.871094 20.175781 L 160.277344 20.042969 L 159.679688 19.9375 L 159.078125 19.863281 L 158.472656 19.816406 L 157.867188 19.796875 L 157.257812 19.808594 L 156.652344 19.847656 L 148.105469 20.621094 L 147.503906 20.691406 Z M 88.460938 29.304688 "/>
<path style=" stroke:none;fill-rule:evenodd;fill:rgb(27.539483%,39.301137%,80.999466%);fill-opacity:0.1;" d="M 227.382812 66.585938 L 163.199219 20.761719 L 141.832031 22.699219 Z M 227.382812 66.585938 "/>
<path style=" stroke:none;fill-rule:evenodd;fill:rgb(27.539483%,39.301137%,80.999466%);fill-opacity:0.1;" d="M 137.476562 143.328125 L 227.382812 66.585938 L 222.894531 67.503906 L 221.765625 67.761719 L 220.648438 68.078125 L 219.550781 68.445312 L 218.46875 68.863281 L 217.410156 69.332031 L 216.375 69.855469 L 215.367188 70.425781 L 201.308594 78.824219 L 200.328125 79.441406 L 199.378906 80.105469 L 198.460938 80.816406 L 197.582031 81.566406 L 196.738281 82.359375 Z M 137.476562 143.328125 "/>
<path style=" stroke:none;fill-rule:evenodd;fill:rgb(27.539483%,39.301137%,80.999466%);fill-opacity:0.1;" d="M 192.234375 87.582031 L 196.722656 86.664062 L 197.851562 86.40625 L 198.964844 86.09375 L 200.066406 85.726562 L 201.144531 85.304688 L 202.203125 84.835938 L 203.238281 84.3125 L 204.246094 83.746094 L 218.308594 75.34375 L 219.289062 74.726562 L 220.238281 74.0625 L 221.152344 73.355469 L 222.035156 72.601562 L 222.878906 71.808594 L 223.683594 70.972656 L 224.445312 70.101562 L 227.382812 66.585938 L 240.890625 38.769531 Z M 192.234375 87.582031 "/>
<path style=" stroke:none;fill-rule:evenodd;fill:rgb(27.539483%,39.301137%,80.999466%);fill-opacity:0.1;" d="M 227.382812 66.585938 L 260.6875 11.285156 L 257.582031 13.457031 L 256.808594 14.023438 L 256.0625 14.628906 L 255.351562 15.269531 L 254.667969 15.941406 L 254.019531 16.644531 L 253.402344 17.382812 L 252.824219 18.144531 L 244.90625 29.136719 L 244.363281 29.929688 L 243.863281 30.746094 L 243.398438 31.585938 L 242.976562 32.445312 Z M 227.382812 66.585938 "/>
<path style=" stroke:none;fill-rule:evenodd;fill:rgb(27.539483%,39.301137%,80.999466%);fill-opacity:0.1;" d="M 292.539062 44.894531 L 260.6875 11.285156 L 240.890625 38.769531 Z M 292.539062 44.894531 "/>
<path style=" stroke:none;fill-rule:evenodd;fill:rgb(27.539483%,39.301137%,80.999466%);fill-opacity:0.1;" d="M 227.382812 66.585938 L 292.539062 44.894531 L 297.46875 23.5625 Z M 227.382812 66.585938 "/>
<path style=" stroke:none;fill-rule:evenodd;fill:rgb(27.539483%,39.301137%,80.999466%);fill-opacity:0.1;" d="M 334.226562 56.671875 L 297.46875 23.5625 L 292.539062 44.894531 Z M 334.226562 56.671875 "/>
<path style=" stroke:none;fill-rule:evenodd;fill:rgb(27.539483%,39.301137%,80.999466%);fill-opacity:0.1;" d="M 349.695312 76.300781 L 334.226562 56.671875 L 292.539062 44.894531 Z M 349.695312 76.300781 "/>
<path style=" stroke:none;fill-rule:evenodd;fill:rgb(27.539483%,39.301137%,80.999466%);fill-opacity:0.1;" d="M 307.707031 121.96875 L 349.695312 76.300781 L 348.789062 73.65625 L 348.542969 72.992188 L 348.265625 72.339844 L 347.957031 71.703125 L 347.617188 71.082031 L 347.25 70.480469 L 346.855469 69.894531 L 346.429688 69.328125 L 340.242188 61.476562 L 339.789062 60.933594 L 339.3125 60.410156 L 338.8125 59.910156 L 338.289062 59.4375 L 337.742188 58.988281 L 337.171875 58.566406 L 336.585938 58.171875 L 334.226562 56.671875 Z M 307.707031 121.96875 "/>
<path style=" stroke:none;fill-rule:evenodd;fill:rgb(27.539483%,39.301137%,80.999466%);fill-opacity:0.1;" d="M 307.707031 121.96875 L 289.003906 104.492188 L 227.382812 66.585938 L 302.5625 119.402344 L 303.167969 119.800781 L 303.789062 120.167969 L 304.429688 120.507812 L 305.085938 120.816406 Z M 307.707031 121.96875 "/>
<path style=" stroke:none;fill-rule:evenodd;fill:rgb(27.539483%,39.301137%,80.999466%);fill-opacity:0.1;" d="M 328.207031 149.820312 L 305.234375 117.585938 L 304.796875 117.011719 L 304.328125 116.457031 L 303.835938 115.925781 L 303.320312 115.417969 L 295.835938 108.425781 L 295.296875 107.945312 L 294.734375 107.488281 L 294.148438 107.0625 L 293.542969 106.664062 L 292.921875 106.292969 L 292.28125 105.953125 L 291.625 105.644531 L 289.003906 104.492188 Z M 328.207031 149.820312 "/>
<path style=" stroke:none;fill-rule:evenodd;fill:rgb(27.539483%,39.301137%,80.999466%);fill-opacity:0.1;" d="M 338.597656 176.308594 L 328.207031 149.820312 L 307.707031 121.96875 L 334.667969 171.265625 L 335.082031 171.957031 L 335.53125 172.625 L 336.011719 173.273438 L 336.519531 173.894531 Z M 338.597656 176.308594 "/>
<path style=" stroke:none;fill-rule:evenodd;fill:rgb(27.539483%,39.301137%,80.999466%);fill-opacity:0.1;" d="M 338.597656 176.308594 L 338.480469 173.128906 L 338.429688 172.324219 L 338.34375 171.523438 L 338.214844 170.726562 L 338.050781 169.941406 L 337.847656 169.160156 L 337.609375 168.390625 L 337.335938 167.632812 L 333.175781 157.039062 L 332.867188 156.296875 L 332.519531 155.570312 L 332.136719 154.859375 L 331.722656 154.171875 L 331.273438 153.503906 L 330.792969 152.855469 L 330.28125 152.234375 L 328.207031 149.820312 L 281.195312 172.339844 Z M 338.597656 176.308594 "/>
<path style=" stroke:none;fill-rule:evenodd;fill:rgb(27.539483%,39.301137%,80.999466%);fill-opacity:0.1;" d="M 288.722656 192.007812 L 307.707031 121.96875 L 281.195312 172.339844 L 281.261719 174.695312 L 281.292969 175.289062 L 281.355469 175.882812 L 281.441406 176.472656 L 281.558594 177.054688 L 281.703125 177.632812 L 281.875 178.203125 L 282.074219 178.765625 L 285.085938 186.632812 L 285.3125 187.183594 L 285.566406 187.722656 L 285.84375 188.25 L 286.148438 188.765625 L 286.472656 189.261719 L 286.824219 189.742188 L 287.199219 190.207031 Z M 288.722656 192.007812 "/>
<path style=" stroke:none;fill-rule:evenodd;fill:rgb(27.539483%,39.301137%,80.999466%);fill-opacity:0.1;" d="M 288.722656 192.007812 L 288.652344 189.652344 L 288.621094 189.054688 L 288.5625 188.460938 L 288.472656 187.875 L 288.355469 187.289062 L 288.210938 186.710938 L 288.039062 186.140625 L 287.839844 185.578125 L 284.828125 177.710938 L 284.601562 177.160156 L 284.351562 176.621094 L 284.070312 176.09375 L 283.769531 175.582031 L 283.441406 175.082031 L 283.089844 174.601562 L 282.714844 174.136719 L 281.195312 172.339844 L 226.015625 183.34375 Z M 288.722656 192.007812 "/>
<path style=" stroke:none;fill-rule:evenodd;fill:rgb(27.539483%,39.301137%,80.999466%);fill-opacity:0.1;" d="M 221.933594 183.859375 L 222.527344 183.839844 L 223.117188 183.789062 L 223.703125 183.710938 L 226.015625 183.34375 L 281.195312 172.339844 L 205.425781 179.609375 L 207.460938 180.765625 L 207.984375 181.046875 L 208.519531 181.300781 L 209.066406 181.527344 L 209.621094 181.730469 L 210.1875 181.90625 L 210.761719 182.050781 L 211.339844 182.171875 L 219.578125 183.664062 L 220.160156 183.753906 L 220.75 183.820312 L 221.339844 183.855469 Z M 221.933594 183.859375 "/>
<path style=" stroke:none;fill-rule:evenodd;fill:rgb(27.539483%,39.301137%,80.999466%);fill-opacity:0.1;" d="M 226.015625 183.34375 L 223.976562 182.1875 L 223.457031 181.90625 L 222.921875 181.652344 L 137.476562 143.328125 L 205.425781 179.609375 Z M 226.015625 183.34375 "/>
<path style="fill:none;stroke-width:1;stroke-linecap:square;stroke-linejoin:miter;stroke:rgb(14.999619%,22.700847%,50.000763%);stroke-opacity:0.7;stroke-miterlimit:3.25;" d="M 135.457031 140.972656 L 129.199219 133.683594 L 127.945312 131.875 L 127.085938 129.84375 L 126.664062 127.683594 L 126.691406 125.480469 L 127.171875 123.332031 L 128.082031 121.324219 L 129.382812 119.546875 L 131.019531 118.074219 L 132.925781 116.96875 L 135.015625 116.277344 L 137.203125 116.027344 L 139.398438 116.234375 L 141.5 116.882812 L 143.429688 117.953125 L 145.09375 119.390625 L 146.433594 121.140625 L 147.382812 123.128906 L 147.902344 125.269531 L 147.976562 127.46875 L 147.597656 129.640625 L 146.78125 131.6875 L 145.5625 133.519531 L 145.292969 133.847656 "/>
<path style=" stroke:none;fill-rule:evenodd;fill:rgb(14.999619%,22.700847%,50.000763%);fill-opacity:0.7;" d="M 143.835938 131.433594 L 143.972656 131.738281 L 144.324219 132.453125 L 144.554688 132.863281 L 144.796875 133.257812 L 145.050781 133.601562 L 145.292969 133.847656 L 145.558594 134.019531 L 145.933594 134.195312 L 146.382812 134.367188 L 146.851562 134.535156 L 147.671875 134.785156 L 148.023438 134.886719 L 139.453125 140.933594 Z M 143.835938 131.433594 "/>
<path style="fill:none;stroke-width:1;stroke-linecap:square;stroke-linejoin:miter;stroke:rgb(14.999619%,22.700847%,50.000763%);stroke-opacity:0.7;stroke-miterlimit:3.25;" d="M 136.242188 146.171875 L 134.324219 150.59375 L 133.570312 152.449219 L 132.90625 154.339844 L 132.332031 156.261719 L 131.855469 158.207031 L 131.46875 160.171875 L 131.179688 162.15625 L 130.988281 164.148438 L 128.921875 192.394531 L 128.824219 194.394531 L 128.820312 196.398438 L 128.917969 198.398438 L 129.105469 200.394531 L 129.34375 202.023438 "/>
<path style=" stroke:none;fill-rule:evenodd;fill:rgb(14.999619%,22.700847%,50.000763%);fill-opacity:0.7;" d="M 126.535156 201.738281 L 126.863281 201.808594 L 127.644531 201.957031 L 128.109375 202.019531 L 128.574219 202.0625 L 128.996094 202.066406 L 129.339844 202.019531 L 129.636719 201.910156 L 130.003906 201.714844 L 130.414062 201.460938 L 130.824219 201.183594 L 131.519531 200.679688 L 131.8125 200.457031 L 131.507812 210.941406 Z M 126.535156 201.738281 "/>
<path style="fill:none;stroke-width:1;stroke-linecap:square;stroke-linejoin:miter;stroke:rgb(14.999619%,22.700847%,50.000763%);stroke-opacity:0.7;stroke-miterlimit:3.25;" d="M 138.285156 146.324219 L 139.542969 150.976562 L 140.019531 152.921875 L 140.398438 154.890625 L 140.6875 156.871094 L 140.878906 158.867188 L 140.972656 160.867188 L 140.96875 162.871094 L 140.871094 164.871094 L 138.808594 193.117188 L 138.613281 195.109375 L 138.324219 197.09375 L 137.9375 199.058594 L 137.460938 201.003906 L 136.988281 202.582031 "/>
<path style=" stroke:none;fill-rule:evenodd;fill:rgb(14.999619%,22.700847%,50.000763%);fill-opacity:0.7;" d="M 134.875 200.714844 L 135.097656 200.964844 L 135.648438 201.539062 L 135.992188 201.859375 L 136.339844 202.164062 L 136.683594 202.414062 L 136.992188 202.578125 L 137.296875 202.664062 L 137.707031 202.71875 L 138.1875 202.746094 L 138.683594 202.765625 L 139.542969 202.757812 L 139.910156 202.746094 L 133.550781 211.09375 Z M 134.875 200.714844 "/>
<path style="fill:none;stroke-width:1;stroke-linecap:square;stroke-linejoin:miter;stroke:rgb(14.999619%,22.700847%,50.000763%);stroke-opacity:0.7;stroke-miterlimit:3.25;" d="M 129.617188 212.410156 L 114.824219 204.027344 "/>
<path style=" stroke:none;fill-rule:evenodd;fill:rgb(14.999619%,22.700847%,50.000763%);fill-opacity:0.7;" d="M 116.949219 202.175781 L 116.671875 202.363281 L 116.03125 202.832031 L 115.667969 203.132812 L 115.316406 203.4375 L 115.023438 203.746094 L 114.824219 204.027344 L 114.699219 204.320312 L 114.589844 204.71875 L 114.5 205.191406 L 114.417969 205.683594 L 114.3125 206.535156 L 114.273438 206.898438 L 106.835938 199.5 Z M 116.949219 202.175781 "/>
<path style="fill:none;stroke-width:1;stroke-linecap:square;stroke-linejoin:miter;stroke:rgb(14.999619%,22.700847%,50.000763%);stroke-opacity:0.7;stroke-miterlimit:3.25;" d="M 135.863281 145.976562 L 110.535156 187.484375 "/>
<path style=" stroke:none;fill-rule:evenodd;fill:rgb(14.999619%,22.700847%,50.000763%);fill-opacity:0.7;" d="M 108.75 185.300781 L 108.929688 185.582031 L 109.378906 186.238281 L 109.664062 186.613281 L 109.960938 186.972656 L 110.257812 187.273438 L 110.535156 187.484375 L 110.820312 187.617188 L 111.21875 187.738281 L 111.6875 187.847656 L 112.171875 187.945312 L 113.019531 188.078125 L 113.382812 188.128906 L 105.75 195.324219 Z M 108.75 185.300781 "/>
<path style="fill:none;stroke-width:1;stroke-linecap:square;stroke-linejoin:miter;stroke:rgb(14.999619%,22.700847%,50.000763%);stroke-opacity:0.7;stroke-miterlimit:3.25;" d="M 101.195312 198.964844 L 100.699219 199.09375 L 100.105469 199.222656 L 99.507812 199.324219 L 98.90625 199.394531 L 98.300781 199.433594 L 97.691406 199.445312 L 94.75 199.433594 "/>
<path style=" stroke:none;fill-rule:evenodd;fill:rgb(14.999619%,22.700847%,50.000763%);fill-opacity:0.7;" d="M 95.871094 196.832031 L 95.707031 197.125 L 95.339844 197.828125 L 95.140625 198.257812 L 94.964844 198.6875 L 94.835938 199.09375 L 94.78125 199.433594 L 94.800781 199.75 L 94.878906 200.160156 L 95.003906 200.625 L 95.144531 201.097656 L 95.425781 201.910156 L 95.554688 202.253906 L 85.613281 198.894531 Z M 95.871094 196.832031 "/>
<path style="fill:none;stroke-width:1;stroke-linecap:square;stroke-linejoin:miter;stroke:rgb(14.999619%,22.700847%,50.000763%);stroke-opacity:0.7;stroke-miterlimit:3.25;" d="M 101.203125 196.953125 L 100.710938 196.820312 L 100.117188 196.6875 L 99.519531 196.582031 L 98.917969 196.507812 L 98.3125 196.460938 L 97.707031 196.441406 L 94.761719 196.429688 "/>
<path style=" stroke:none;fill-rule:evenodd;fill:rgb(14.999619%,22.700847%,50.000763%);fill-opacity:0.7;" d="M 95.597656 193.722656 L 95.464844 194.03125 L 95.175781 194.773438 L 95.027344 195.21875 L 94.894531 195.664062 L 94.8125 196.082031 L 94.792969 196.429688 L 94.847656 196.738281 L 94.96875 197.136719 L 95.144531 197.585938 L 95.335938 198.042969 L 95.703125 198.816406 L 95.867188 199.144531 L 85.625 196.886719 Z M 95.597656 193.722656 "/>
<path style="fill:none;stroke-width:1;stroke-linecap:square;stroke-linejoin:miter;stroke:rgb(14.999619%,22.700847%,50.000763%);stroke-opacity:0.7;stroke-miterlimit:3.25;" d="M 80.84375 195.378906 L 68.300781 178.363281 "/>
<path style=" stroke:none;fill-rule:evenodd;fill:rgb(14.999619%,22.700847%,50.000763%);fill-opacity:0.7;" d="M 71 177.539062 L 70.671875 177.597656 L 69.890625 177.765625 L 69.4375 177.886719 L 68.996094 178.027344 L 68.601562 178.1875 L 68.300781 178.363281 L 68.070312 178.578125 L 67.808594 178.898438 L 67.53125 179.292969 L 67.257812 179.707031 L 66.8125 180.441406 L 66.628906 180.757812 L 62.855469 170.96875 Z M 71 177.539062 "/>
<path style="fill:none;stroke-width:1;stroke-linecap:square;stroke-linejoin:miter;stroke:rgb(14.999619%,22.700847%,50.000763%);stroke-opacity:0.7;stroke-miterlimit:3.25;" d="M 134.53125 144.296875 L 72.683594 164.632812 "/>
<path style=" stroke:none;fill-rule:evenodd;fill:rgb(14.999619%,22.700847%,50.000763%);fill-opacity:0.7;" d="M 72.742188 161.816406 L 72.695312 162.144531 L 72.613281 162.9375 L 72.589844 163.40625 L 72.582031 163.871094 L 72.609375 164.296875 L 72.683594 164.632812 L 72.816406 164.921875 L 73.039062 165.273438 L 73.328125 165.660156 L 73.636719 166.046875 L 74.195312 166.699219 L 74.4375 166.972656 L 63.960938 167.503906 Z M 72.742188 161.816406 "/>
<path style="fill:none;stroke-width:1;stroke-linecap:square;stroke-linejoin:miter;stroke:rgb(14.999619%,22.700847%,50.000763%);stroke-opacity:0.7;stroke-miterlimit:3.25;" d="M 61.871094 165.492188 L 62.0625 164.964844 L 62.296875 164.398438 L 62.5625 163.839844 L 62.851562 163.296875 L 63.164062 162.769531 L 63.507812 162.257812 L 65.308594 159.679688 "/>
<path style=" stroke:none;fill-rule:evenodd;fill:rgb(14.999619%,22.700847%,50.000763%);fill-opacity:0.7;" d="M 66.800781 162.089844 L 66.65625 161.785156 L 66.289062 161.082031 L 66.046875 160.675781 L 65.796875 160.285156 L 65.539062 159.949219 L 65.289062 159.707031 L 65.019531 159.542969 L 64.640625 159.375 L 64.1875 159.210938 L 63.714844 159.054688 L 62.890625 158.824219 L 62.535156 158.730469 L 70.96875 152.492188 Z M 66.800781 162.089844 "/>
<path style="fill:none;stroke-width:1;stroke-linecap:square;stroke-linejoin:miter;stroke:rgb(14.999619%,22.700847%,50.000763%);stroke-opacity:0.7;stroke-miterlimit:3.25;" d="M 63.523438 166.644531 L 63.953125 166.289062 L 64.402344 165.871094 L 64.835938 165.433594 L 65.246094 164.976562 L 65.636719 164.496094 L 66 164.003906 L 67.804688 161.425781 "/>
<path style=" stroke:none;fill-rule:evenodd;fill:rgb(14.999619%,22.700847%,50.000763%);fill-opacity:0.7;" d="M 69.554688 163.652344 L 69.378906 163.367188 L 68.933594 162.707031 L 68.648438 162.332031 L 68.355469 161.972656 L 68.058594 161.667969 L 67.785156 161.453125 L 67.5 161.320312 L 67.101562 161.195312 L 66.632812 161.082031 L 66.148438 160.984375 L 65.300781 160.84375 L 64.9375 160.792969 L 72.617188 153.648438 Z M 69.554688 163.652344 "/>
<path style="fill:none;stroke-width:1;stroke-linecap:square;stroke-linejoin:miter;stroke:rgb(14.999619%,22.700847%,50.000763%);stroke-opacity:0.7;stroke-miterlimit:3.25;" d="M 70.539062 149.664062 L 42.4375 140.085938 "/>
<path style=" stroke:none;fill-rule:evenodd;fill:rgb(14.999619%,22.700847%,50.000763%);fill-opacity:0.7;" d="M 44.183594 137.871094 L 43.945312 138.105469 L 43.402344 138.6875 L 43.097656 139.046875 L 42.8125 139.414062 L 42.582031 139.769531 L 42.4375 140.085938 L 42.371094 140.394531 L 42.335938 140.808594 L 42.335938 141.292969 L 42.34375 141.785156 L 42.398438 142.644531 L 42.429688 143.007812 L 33.746094 137.125 Z M 44.183594 137.871094 "/>
<path style="fill:none;stroke-width:1;stroke-linecap:square;stroke-linejoin:miter;stroke:rgb(14.999619%,22.700847%,50.000763%);stroke-opacity:0.7;stroke-miterlimit:3.25;" d="M 58.898438 166.203125 L 39.191406 145.101562 "/>
<path style=" stroke:none;fill-rule:evenodd;fill:rgb(14.999619%,22.700847%,50.000763%);fill-opacity:0.7;" d="M 41.777344 143.972656 L 41.457031 144.066406 L 40.703125 144.324219 L 40.265625 144.5 L 39.839844 144.6875 L 39.46875 144.894531 L 39.191406 145.101562 L 38.988281 145.34375 L 38.765625 145.695312 L 38.535156 146.117188 L 38.308594 146.558594 L 37.953125 147.339844 L 37.808594 147.675781 L 32.925781 138.390625 Z M 41.777344 143.972656 "/>
<path style="fill:none;stroke-width:1;stroke-linecap:square;stroke-linejoin:miter;stroke:rgb(14.999619%,22.700847%,50.000763%);stroke-opacity:0.7;stroke-miterlimit:3.25;" d="M 27.71875 135.828125 L 27.664062 135.824219 L 27.035156 135.71875 L 26.410156 135.585938 L 25.796875 135.421875 L 25.1875 135.230469 L 24.589844 135.007812 L 24.003906 134.757812 L 20.625 133.222656 "/>
<path style=" stroke:none;fill-rule:evenodd;fill:rgb(14.999619%,22.700847%,50.000763%);fill-opacity:0.7;" d="M 22.738281 131.332031 L 22.464844 131.527344 L 21.835938 132.011719 L 21.480469 132.320312 L 21.136719 132.636719 L 20.855469 132.953125 L 20.660156 133.238281 L 20.542969 133.535156 L 20.445312 133.9375 L 20.367188 134.414062 L 20.296875 134.902344 L 20.214844 135.757812 L 20.1875 136.125 L 12.554688 128.925781 Z M 22.738281 131.332031 "/>
<path style="fill:none;stroke-width:1;stroke-linecap:square;stroke-linejoin:miter;stroke:rgb(14.999619%,22.700847%,50.000763%);stroke-opacity:0.7;stroke-miterlimit:3.25;" d="M 28.558594 133.988281 L 28.515625 133.949219 L 28.027344 133.542969 L 27.515625 133.160156 L 26.988281 132.804688 L 26.445312 132.472656 L 25.882812 132.164062 L 25.308594 131.886719 L 21.933594 130.351562 "/>
<path style=" stroke:none;fill-rule:evenodd;fill:rgb(14.999619%,22.700847%,50.000763%);fill-opacity:0.7;" d="M 23.792969 128.214844 L 23.546875 128.441406 L 22.984375 129.003906 L 22.667969 129.351562 L 22.367188 129.707031 L 22.125 130.054688 L 21.96875 130.363281 L 21.890625 130.671875 L 21.84375 131.082031 L 21.820312 131.566406 L 21.8125 132.0625 L 21.835938 132.917969 L 21.855469 133.285156 L 13.390625 127.085938 Z M 23.792969 128.214844 "/>
<path style="fill:none;stroke-width:1;stroke-linecap:square;stroke-linejoin:miter;stroke:rgb(14.999619%,22.700847%,50.000763%);stroke-opacity:0.7;stroke-miterlimit:3.25;" d="M 12.558594 124.660156 L 51.074219 88.277344 "/>
<path style=" stroke:none;fill-rule:evenodd;fill:rgb(14.999619%,22.700847%,50.000763%);fill-opacity:0.7;" d="M 52.222656 90.855469 L 52.125 90.535156 L 51.863281 89.78125 L 51.683594 89.347656 L 51.496094 88.921875 L 51.285156 88.550781 L 51.074219 88.277344 L 50.835938 88.074219 L 50.484375 87.851562 L 50.058594 87.625 L 49.613281 87.402344 L 48.832031 87.050781 L 48.496094 86.90625 L 57.75 81.972656 Z M 52.222656 90.855469 "/>
<path style="fill:none;stroke-width:1;stroke-linecap:square;stroke-linejoin:miter;stroke:rgb(14.999619%,22.700847%,50.000763%);stroke-opacity:0.7;stroke-miterlimit:3.25;" d="M 135.078125 141.359375 L 69.507812 87.628906 "/>
<path style=" stroke:none;fill-rule:evenodd;fill:rgb(14.999619%,22.700847%,50.000763%);fill-opacity:0.7;" d="M 71.921875 86.164062 L 71.617188 86.300781 L 70.902344 86.65625 L 70.492188 86.886719 L 70.097656 87.128906 L 69.753906 87.382812 L 69.507812 87.628906 L 69.339844 87.894531 L 69.164062 88.269531 L 68.992188 88.71875 L 68.828125 89.1875 L 68.578125 90.007812 L 68.480469 90.363281 L 62.40625 81.808594 Z M 71.921875 86.164062 "/>
<path style="fill:none;stroke-width:1;stroke-linecap:square;stroke-linejoin:miter;stroke:rgb(14.999619%,22.700847%,50.000763%);stroke-opacity:0.7;stroke-miterlimit:3.25;" d="M 61.5 82.558594 L 61.890625 83.230469 L 62.316406 83.890625 L 62.773438 84.527344 L 63.261719 85.140625 L 63.777344 85.726562 L 64.320312 86.292969 L 64.890625 86.828125 L 70.367188 91.75 "/>
<path style=" stroke:none;fill-rule:evenodd;fill:rgb(14.999619%,22.700847%,50.000763%);fill-opacity:0.7;" d="M 67.996094 93.308594 L 68.292969 93.15625 L 68.984375 92.761719 L 69.382812 92.507812 L 69.765625 92.246094 L 70.089844 91.972656 L 70.324219 91.714844 L 70.480469 91.441406 L 70.632812 91.054688 L 70.78125 90.597656 L 70.917969 90.121094 L 71.125 89.285156 L 71.203125 88.929688 L 77.734375 97.136719 Z M 67.996094 93.308594 "/>
<path style="fill:none;stroke-width:1;stroke-linecap:square;stroke-linejoin:miter;stroke:rgb(14.999619%,22.700847%,50.000763%);stroke-opacity:0.7;stroke-miterlimit:3.25;" d="M 62.871094 81.035156 L 63.582031 81.351562 L 64.28125 81.703125 L 64.960938 82.089844 L 65.625 82.507812 L 66.265625 82.957031 L 66.882812 83.4375 L 67.480469 83.945312 L 72.957031 88.867188 "/>
<path style=" stroke:none;fill-rule:evenodd;fill:rgb(14.999619%,22.700847%,50.000763%);fill-opacity:0.7;" d="M 70.320312 89.925781 L 70.644531 89.832031 L 71.398438 89.585938 L 71.839844 89.414062 L 72.265625 89.230469 L 72.640625 89.03125 L 72.917969 88.824219 L 73.128906 88.585938 L 73.355469 88.238281 L 73.589844 87.820312 L 73.820312 87.378906 L 74.1875 86.601562 L 74.335938 86.269531 L 79.105469 95.613281 Z M 70.320312 89.925781 "/>
<path style="fill:none;stroke-width:1;stroke-linecap:square;stroke-linejoin:miter;stroke:rgb(14.999619%,22.700847%,50.000763%);stroke-opacity:0.7;stroke-miterlimit:3.25;" d="M 78.675781 95.894531 L 50.566406 60.296875 "/>
<path style=" stroke:none;fill-rule:evenodd;fill:rgb(14.999619%,22.700847%,50.000763%);fill-opacity:0.7;" d="M 53.234375 59.382812 L 52.90625 59.453125 L 52.132812 59.644531 L 51.683594 59.78125 L 51.246094 59.933594 L 50.859375 60.109375 L 50.566406 60.296875 L 50.339844 60.519531 L 50.089844 60.847656 L 49.824219 61.25 L 49.5625 61.671875 L 49.144531 62.421875 L 48.972656 62.746094 L 44.875 53.089844 Z M 53.234375 59.382812 "/>
<path style="fill:none;stroke-width:1;stroke-linecap:square;stroke-linejoin:miter;stroke:rgb(14.999619%,22.700847%,50.000763%);stroke-opacity:0.7;stroke-miterlimit:3.25;" d="M 58.441406 77.160156 L 49.148438 61.261719 "/>
<path style=" stroke:none;fill-rule:evenodd;fill:rgb(14.999619%,22.700847%,50.000763%);fill-opacity:0.7;" d="M 51.917969 60.726562 L 51.585938 60.75 L 50.792969 60.835938 L 50.328125 60.910156 L 49.875 61 L 49.464844 61.117188 L 49.148438 61.261719 L 48.898438 61.449219 L 48.601562 61.742188 L 48.285156 62.105469 L 47.96875 62.484375 L 47.449219 63.167969 L 47.230469 63.464844 L 44.515625 53.332031 Z M 51.917969 60.726562 "/>
<path style="fill:none;stroke-width:1;stroke-linecap:square;stroke-linejoin:miter;stroke:rgb(14.999619%,22.700847%,50.000763%);stroke-opacity:0.7;stroke-miterlimit:3.25;" d="M 40.847656 48.371094 L 40.757812 48.273438 L 40.21875 47.660156 L 39.707031 47.019531 L 39.226562 46.355469 L 38.78125 45.671875 L 38.371094 44.964844 L 37.992188 44.238281 L 37.648438 43.496094 L 34.371094 35.925781 "/>
<path style=" stroke:none;fill-rule:evenodd;fill:rgb(14.999619%,22.700847%,50.000763%);fill-opacity:0.7;" d="M 37.207031 36.09375 L 36.878906 36.042969 L 36.089844 35.941406 L 35.617188 35.910156 L 35.15625 35.894531 L 34.730469 35.914062 L 34.390625 35.984375 L 34.101562 36.109375 L 33.746094 36.328125 L 33.355469 36.605469 L 32.960938 36.90625 L 32.296875 37.453125 L 32.019531 37.691406 L 31.6875 27.207031 Z M 37.207031 36.09375 "/>
<path style="fill:none;stroke-width:1;stroke-linecap:square;stroke-linejoin:miter;stroke:rgb(14.999619%,22.700847%,50.000763%);stroke-opacity:0.7;stroke-miterlimit:3.25;" d="M 42.730469 47.558594 L 42.71875 47.425781 L 42.640625 46.609375 L 42.523438 45.800781 L 42.367188 44.996094 L 42.171875 44.203125 L 41.941406 43.417969 L 41.671875 42.644531 L 41.363281 41.886719 L 38.089844 34.316406 "/>
<path style=" stroke:none;fill-rule:evenodd;fill:rgb(14.999619%,22.700847%,50.000763%);fill-opacity:0.7;" d="M 40.894531 33.867188 L 40.558594 33.886719 L 39.765625 33.960938 L 39.300781 34.03125 L 38.84375 34.117188 L 38.433594 34.230469 L 38.117188 34.371094 L 37.863281 34.554688 L 37.5625 34.84375 L 37.242188 35.203125 L 36.921875 35.582031 L 36.394531 36.257812 L 36.175781 36.554688 L 33.570312 26.390625 Z M 40.894531 33.867188 "/>
<path style="fill:none;stroke-width:1;stroke-linecap:square;stroke-linejoin:miter;stroke:rgb(14.999619%,22.700847%,50.000763%);stroke-opacity:0.7;stroke-miterlimit:3.25;" d="M 34.554688 24.394531 L 76.226562 28.1875 "/>
<path style=" stroke:none;fill-rule:evenodd;fill:rgb(14.999619%,22.700847%,50.000763%);fill-opacity:0.7;" d="M 75.050781 30.753906 L 75.226562 30.46875 L 75.617188 29.773438 L 75.828125 29.355469 L 76.019531 28.929688 L 76.15625 28.527344 L 76.226562 28.1875 L 76.21875 27.875 L 76.152344 27.460938 L 76.042969 26.992188 L 75.914062 26.515625 L 75.660156 25.695312 L 75.542969 25.347656 L 85.371094 29.023438 Z M 75.050781 30.753906 "/>
<path style="fill:none;stroke-width:1;stroke-linecap:square;stroke-linejoin:miter;stroke:rgb(14.999619%,22.700847%,50.000763%);stroke-opacity:0.7;stroke-miterlimit:3.25;" d="M 61.527344 77.136719 L 82.433594 40.007812 "/>
<path style=" stroke:none;fill-rule:evenodd;fill:rgb(14.999619%,22.700847%,50.000763%);fill-opacity:0.7;" d="M 84.292969 42.128906 L 84.101562 41.855469 L 83.632812 41.214844 L 83.332031 40.847656 L 83.023438 40.5 L 82.714844 40.210938 L 82.433594 40.007812 L 82.140625 39.886719 L 81.738281 39.777344 L 81.265625 39.6875 L 80.777344 39.605469 L 79.925781 39.503906 L 79.5625 39.464844 L 86.9375 32.007812 Z M 84.292969 42.128906 "/>
<path style="fill:none;stroke-width:1;stroke-linecap:square;stroke-linejoin:miter;stroke:rgb(14.999619%,22.700847%,50.000763%);stroke-opacity:0.7;stroke-miterlimit:3.25;" d="M 86.378906 27.003906 L 86.109375 26.660156 L 85.761719 26.179688 L 85.4375 25.679688 L 85.140625 25.164062 L 84.867188 24.636719 L 84.617188 24.097656 L 83.578125 21.6875 "/>
<path style=" stroke:none;fill-rule:evenodd;fill:rgb(14.999619%,22.700847%,50.000763%);fill-opacity:0.7;" d="M 86.410156 21.667969 L 86.078125 21.632812 L 85.285156 21.582031 L 84.8125 21.574219 L 84.347656 21.582031 L 83.925781 21.628906 L 83.589844 21.714844 L 83.308594 21.859375 L 82.964844 22.097656 L 82.589844 22.398438 L 82.214844 22.71875 L 81.582031 23.300781 L 81.320312 23.558594 L 80.394531 13.109375 Z M 86.410156 21.667969 "/>
<path style="fill:none;stroke-width:1;stroke-linecap:square;stroke-linejoin:miter;stroke:rgb(14.999619%,22.700847%,50.000763%);stroke-opacity:0.7;stroke-miterlimit:3.25;" d="M 88.21875 26.210938 L 88.15625 25.777344 L 88.042969 25.195312 L 87.902344 24.617188 L 87.734375 24.046875 L 87.539062 23.488281 L 87.316406 22.933594 L 86.28125 20.523438 "/>
<path style=" stroke:none;fill-rule:evenodd;fill:rgb(14.999619%,22.700847%,50.000763%);fill-opacity:0.7;" d="M 89.09375 20.214844 L 88.757812 20.214844 L 87.964844 20.242188 L 87.496094 20.285156 L 87.035156 20.34375 L 86.617188 20.433594 L 86.292969 20.550781 L 86.027344 20.722656 L 85.710938 20.992188 L 85.371094 21.332031 L 85.027344 21.691406 L 84.460938 22.335938 L 84.222656 22.617188 L 82.234375 12.316406 Z M 89.09375 20.214844 "/>
<path style="fill:none;stroke-width:1;stroke-linecap:square;stroke-linejoin:miter;stroke:rgb(14.999619%,22.700847%,50.000763%);stroke-opacity:0.7;stroke-miterlimit:3.25;" d="M 83.191406 10.640625 L 129.800781 20.222656 "/>
<path style=" stroke:none;fill-rule:evenodd;fill:rgb(14.999619%,22.700847%,50.000763%);fill-opacity:0.7;" d="M 128.347656 22.640625 L 128.550781 22.378906 L 129.019531 21.734375 L 129.273438 21.335938 L 129.511719 20.9375 L 129.695312 20.554688 L 129.800781 20.222656 L 129.828125 19.910156 L 129.808594 19.492188 L 129.75 19.015625 L 129.679688 18.523438 L 129.515625 17.683594 L 129.441406 17.324219 L 138.792969 22.074219 Z M 128.347656 22.640625 "/>
<path style="fill:none;stroke-width:1;stroke-linecap:square;stroke-linejoin:miter;stroke:rgb(14.999619%,22.700847%,50.000763%);stroke-opacity:0.7;stroke-miterlimit:3.25;" d="M 91.539062 28.921875 L 129.640625 24.207031 "/>
<path style=" stroke:none;fill-rule:evenodd;fill:rgb(14.999619%,22.700847%,50.000763%);fill-opacity:0.7;" d="M 129.039062 26.964844 L 129.148438 26.648438 L 129.382812 25.886719 L 129.5 25.429688 L 129.597656 24.976562 L 129.648438 24.554688 L 129.640625 24.207031 L 129.566406 23.902344 L 129.414062 23.511719 L 129.207031 23.078125 L 128.980469 22.636719 L 128.558594 21.890625 L 128.371094 21.574219 L 138.753906 23.078125 Z M 129.039062 26.964844 "/>
<path style="fill:none;stroke-width:1;stroke-linecap:square;stroke-linejoin:miter;stroke:rgb(14.999619%,22.700847%,50.000763%);stroke-opacity:0.7;stroke-miterlimit:3.25;" d="M 144.667969 21.433594 L 145.144531 21.253906 L 145.722656 21.070312 L 146.3125 20.917969 L 146.90625 20.789062 L 147.503906 20.691406 L 148.105469 20.621094 L 151.039062 20.355469 "/>
<path style=" stroke:none;fill-rule:evenodd;fill:rgb(14.999619%,22.700847%,50.000763%);fill-opacity:0.7;" d="M 150.167969 23.050781 L 150.304688 22.746094 L 150.605469 22.007812 L 150.757812 21.5625 L 150.894531 21.121094 L 150.984375 20.703125 L 151.007812 20.359375 L 150.960938 20.046875 L 150.84375 19.648438 L 150.671875 19.195312 L 150.488281 18.734375 L 150.132812 17.957031 L 149.972656 17.625 L 160.183594 20.027344 Z M 150.167969 23.050781 "/>
<path style="fill:none;stroke-width:1;stroke-linecap:square;stroke-linejoin:miter;stroke:rgb(14.999619%,22.700847%,50.000763%);stroke-opacity:0.7;stroke-miterlimit:3.25;" d="M 144.847656 23.433594 L 145.351562 23.523438 L 145.953125 23.597656 L 146.558594 23.644531 L 147.164062 23.664062 L 147.773438 23.652344 L 148.378906 23.613281 L 151.3125 23.347656 "/>
<path style=" stroke:none;fill-rule:evenodd;fill:rgb(14.999619%,22.700847%,50.000763%);fill-opacity:0.7;" d="M 150.734375 26.121094 L 150.839844 25.800781 L 151.058594 25.035156 L 151.164062 24.578125 L 151.25 24.121094 L 151.292969 23.699219 L 151.277344 23.351562 L 151.199219 23.046875 L 151.039062 22.664062 L 150.820312 22.234375 L 150.585938 21.796875 L 150.148438 21.058594 L 149.953125 20.746094 L 160.363281 22.027344 Z M 150.734375 26.121094 "/>
<path style="fill:none;stroke-width:1;stroke-linecap:square;stroke-linejoin:miter;stroke:rgb(14.999619%,22.700847%,50.000763%);stroke-opacity:0.7;stroke-miterlimit:3.25;" d="M 165.722656 22.566406 L 217.382812 59.445312 "/>
<path style=" stroke:none;fill-rule:evenodd;fill:rgb(14.999619%,22.700847%,50.000763%);fill-opacity:0.7;" d="M 215.074219 61.070312 L 215.371094 60.910156 L 216.058594 60.507812 L 216.453125 60.25 L 216.832031 59.984375 L 217.15625 59.707031 L 217.382812 59.445312 L 217.535156 59.171875 L 217.6875 58.78125 L 217.828125 58.324219 L 217.960938 57.84375 L 218.15625 57.007812 L 218.230469 56.648438 L 224.859375 64.78125 Z M 215.074219 61.070312 "/>
<path style="fill:none;stroke-width:1;stroke-linecap:square;stroke-linejoin:miter;stroke:rgb(14.999619%,22.700847%,50.000763%);stroke-opacity:0.7;stroke-miterlimit:3.25;" d="M 139.839844 141.3125 L 218.039062 74.5625 "/>
<path style=" stroke:none;fill-rule:evenodd;fill:rgb(14.999619%,22.700847%,50.000763%);fill-opacity:0.7;" d="M 219.054688 77.191406 L 218.972656 76.867188 L 218.75 76.105469 L 218.59375 75.660156 L 218.425781 75.226562 L 218.234375 74.847656 L 218.039062 74.5625 L 217.808594 74.347656 L 217.46875 74.105469 L 217.054688 73.859375 L 216.625 73.613281 L 215.859375 73.222656 L 215.527344 73.0625 L 225.023438 68.601562 Z M 219.054688 77.191406 "/>
<path style="fill:none;stroke-width:1;stroke-linecap:square;stroke-linejoin:miter;stroke:rgb(14.999619%,22.700847%,50.000763%);stroke-opacity:0.7;stroke-miterlimit:3.25;" d="M 224.34375 67.207031 L 222.894531 67.503906 L 221.765625 67.761719 L 220.648438 68.078125 L 219.550781 68.445312 L 218.46875 68.863281 L 217.410156 69.332031 L 216.375 69.855469 L 215.367188 70.425781 L 201.308594 78.824219 L 200.964844 79.039062 "/>
<path style=" stroke:none;fill-rule:evenodd;fill:rgb(14.999619%,22.700847%,50.000763%);fill-opacity:0.7;" d="M 199.898438 76.410156 L 199.988281 76.734375 L 200.238281 77.488281 L 200.410156 77.925781 L 200.59375 78.355469 L 200.792969 78.726562 L 201 79.007812 L 201.238281 79.214844 L 201.585938 79.441406 L 202.007812 79.675781 L 202.445312 79.90625 L 203.222656 80.269531 L 203.558594 80.417969 L 194.222656 85.203125 Z M 199.898438 76.410156 "/>
<path style="fill:none;stroke-width:1;stroke-linecap:square;stroke-linejoin:miter;stroke:rgb(14.999619%,22.700847%,50.000763%);stroke-opacity:0.7;stroke-miterlimit:3.25;" d="M 225.394531 68.96875 L 224.445312 70.101562 L 223.683594 70.972656 L 222.878906 71.808594 L 222.035156 72.601562 L 221.152344 73.355469 L 220.238281 74.0625 L 219.289062 74.726562 L 218.308594 75.34375 L 204.246094 83.746094 L 203.894531 83.945312 "/>
<path style=" stroke:none;fill-rule:evenodd;fill:rgb(14.999619%,22.700847%,50.000763%);fill-opacity:0.7;" d="M 203.945312 81.109375 L 203.90625 81.441406 L 203.835938 82.234375 L 203.820312 82.703125 L 203.820312 83.167969 L 203.859375 83.589844 L 203.941406 83.929688 L 204.078125 84.210938 L 204.308594 84.558594 L 204.601562 84.941406 L 204.917969 85.324219 L 205.488281 85.964844 L 205.738281 86.230469 L 195.273438 86.960938 Z M 203.945312 81.109375 "/>
<path style="fill:none;stroke-width:1;stroke-linecap:square;stroke-linejoin:miter;stroke:rgb(14.999619%,22.700847%,50.000763%);stroke-opacity:0.7;stroke-miterlimit:3.25;" d="M 194.421875 85.386719 L 232.21875 47.46875 "/>
<path style=" stroke:none;fill-rule:evenodd;fill:rgb(14.999619%,22.700847%,50.000763%);fill-opacity:0.7;" d="M 233.441406 50.011719 L 233.332031 49.695312 L 233.050781 48.949219 L 232.859375 48.519531 L 232.65625 48.101562 L 232.4375 47.738281 L 232.21875 47.46875 L 231.96875 47.273438 L 231.609375 47.0625 L 231.179688 46.847656 L 230.730469 46.640625 L 229.9375 46.3125 L 229.59375 46.179688 L 238.699219 40.964844 Z M 233.441406 50.011719 "/>
<path style="fill:none;stroke-width:1;stroke-linecap:square;stroke-linejoin:miter;stroke:rgb(14.999619%,22.700847%,50.000763%);stroke-opacity:0.7;stroke-miterlimit:3.25;" d="M 228.738281 63.792969 L 235.523438 49.820312 "/>
<path style=" stroke:none;fill-rule:evenodd;fill:rgb(14.999619%,22.700847%,50.000763%);fill-opacity:0.7;" d="M 237.507812 51.824219 L 237.304688 51.558594 L 236.792969 50.949219 L 236.472656 50.605469 L 236.144531 50.277344 L 235.816406 50.003906 L 235.523438 49.820312 L 235.226562 49.714844 L 234.816406 49.632812 L 234.339844 49.570312 L 233.847656 49.519531 L 232.992188 49.46875 L 232.625 49.453125 L 239.535156 41.558594 Z M 237.507812 51.824219 "/>
<path style="fill:none;stroke-width:1;stroke-linecap:square;stroke-linejoin:miter;stroke:rgb(14.999619%,22.700847%,50.000763%);stroke-opacity:0.7;stroke-miterlimit:3.25;" d="M 241.769531 35.792969 L 241.964844 35.132812 L 242.257812 34.222656 L 242.597656 33.324219 L 242.976562 32.445312 L 243.398438 31.585938 L 243.863281 30.746094 L 244.363281 29.929688 L 244.90625 29.136719 L 251.78125 19.59375 "/>
<path style=" stroke:none;fill-rule:evenodd;fill:rgb(14.999619%,22.700847%,50.000763%);fill-opacity:0.7;" d="M 252.988281 22.167969 L 252.875 21.851562 L 252.585938 21.113281 L 252.390625 20.683594 L 252.179688 20.269531 L 251.957031 19.90625 L 251.734375 19.640625 L 251.484375 19.449219 L 251.125 19.238281 L 250.691406 19.03125 L 250.238281 18.828125 L 249.441406 18.507812 L 249.097656 18.378906 L 258.144531 13.0625 Z M 252.988281 22.167969 "/>
<path style="fill:none;stroke-width:1;stroke-linecap:square;stroke-linejoin:miter;stroke:rgb(14.999619%,22.700847%,50.000763%);stroke-opacity:0.7;stroke-miterlimit:3.25;" d="M 243.433594 36.992188 L 243.996094 36.597656 L 244.769531 36.03125 L 245.511719 35.425781 L 246.226562 34.785156 L 246.910156 34.113281 L 247.558594 33.410156 L 248.175781 32.671875 L 248.753906 31.910156 L 255.628906 22.367188 "/>
<path style=" stroke:none;fill-rule:evenodd;fill:rgb(14.999619%,22.700847%,50.000763%);fill-opacity:0.7;" d="M 257.535156 24.476562 L 257.335938 24.207031 L 256.839844 23.582031 L 256.527344 23.230469 L 256.207031 22.894531 L 255.886719 22.613281 L 255.597656 22.421875 L 255.304688 22.3125 L 254.898438 22.21875 L 254.421875 22.144531 L 253.929688 22.082031 L 253.074219 22.007812 L 252.707031 21.988281 L 259.808594 14.261719 Z M 257.535156 24.476562 "/>
<path style="fill:none;stroke-width:1;stroke-linecap:square;stroke-linejoin:miter;stroke:rgb(14.999619%,22.700847%,50.000763%);stroke-opacity:0.7;stroke-miterlimit:3.25;" d="M 262.820312 13.539062 L 284.085938 35.976562 "/>
<path style=" stroke:none;fill-rule:evenodd;fill:rgb(14.999619%,22.700847%,50.000763%);fill-opacity:0.7;" d="M 281.511719 37.128906 L 281.832031 37.027344 L 282.582031 36.765625 L 283.019531 36.589844 L 283.441406 36.398438 L 283.8125 36.1875 L 284.085938 35.976562 L 284.289062 35.734375 L 284.511719 35.382812 L 284.738281 34.957031 L 284.960938 34.515625 L 285.308594 33.730469 L 285.453125 33.394531 L 290.402344 42.640625 Z M 281.511719 37.128906 "/>
<path style="fill:none;stroke-width:1;stroke-linecap:square;stroke-linejoin:miter;stroke:rgb(14.999619%,22.700847%,50.000763%);stroke-opacity:0.7;stroke-miterlimit:3.25;" d="M 230.328125 65.605469 L 280.882812 48.773438 "/>
<path style=" stroke:none;fill-rule:evenodd;fill:rgb(14.999619%,22.700847%,50.000763%);fill-opacity:0.7;" d="M 280.832031 51.59375 L 280.878906 51.265625 L 280.960938 50.472656 L 280.984375 50 L 280.988281 49.535156 L 280.957031 49.113281 L 280.882812 48.773438 L 280.75 48.488281 L 280.523438 48.140625 L 280.234375 47.753906 L 279.925781 47.363281 L 279.367188 46.714844 L 279.117188 46.445312 L 289.59375 45.875 Z M 280.832031 51.59375 "/>
<path style="fill:none;stroke-width:1;stroke-linecap:square;stroke-linejoin:miter;stroke:rgb(14.999619%,22.700847%,50.000763%);stroke-opacity:0.7;stroke-miterlimit:3.25;" d="M 292.214844 41.808594 L 292.195312 41.222656 L 292.203125 40.601562 L 292.238281 39.984375 L 292.304688 39.367188 L 292.398438 38.757812 L 292.523438 38.148438 L 293.257812 34.972656 "/>
<path style=" stroke:none;fill-rule:evenodd;fill:rgb(14.999619%,22.700847%,50.000763%);fill-opacity:0.7;" d="M 295.539062 36.652344 L 295.292969 36.425781 L 294.6875 35.910156 L 294.316406 35.621094 L 293.9375 35.355469 L 293.570312 35.140625 L 293.25 35.007812 L 292.9375 34.953125 L 292.523438 34.941406 L 292.039062 34.957031 L 291.546875 34.992188 L 290.691406 35.082031 L 290.328125 35.128906 L 295.828125 26.195312 Z M 295.539062 36.652344 "/>
<path style="fill:none;stroke-width:1;stroke-linecap:square;stroke-linejoin:miter;stroke:rgb(14.999619%,22.700847%,50.000763%);stroke-opacity:0.7;stroke-miterlimit:3.25;" d="M 294.183594 42.261719 L 294.457031 41.746094 L 294.722656 41.1875 L 294.964844 40.613281 L 295.175781 40.03125 L 295.355469 39.441406 L 295.511719 38.839844 L 296.246094 35.664062 "/>
<path style=" stroke:none;fill-rule:evenodd;fill:rgb(14.999619%,22.700847%,50.000763%);fill-opacity:0.7;" d="M 298.703125 37.070312 L 298.433594 36.875 L 297.773438 36.429688 L 297.367188 36.1875 L 296.960938 35.964844 L 296.574219 35.792969 L 296.238281 35.699219 L 295.925781 35.679688 L 295.507812 35.714844 L 295.03125 35.789062 L 294.546875 35.875 L 293.707031 36.066406 L 293.351562 36.152344 L 297.792969 26.648438 Z M 298.703125 37.070312 "/>
<path style="fill:none;stroke-width:1;stroke-linecap:square;stroke-linejoin:miter;stroke:rgb(14.999619%,22.700847%,50.000763%);stroke-opacity:0.7;stroke-miterlimit:3.25;" d="M 299.773438 25.640625 L 325.097656 48.449219 "/>
<path style=" stroke:none;fill-rule:evenodd;fill:rgb(14.999619%,22.700847%,50.000763%);fill-opacity:0.7;" d="M 322.621094 49.800781 L 322.933594 49.675781 L 323.660156 49.355469 L 324.082031 49.144531 L 324.488281 48.917969 L 324.839844 48.683594 L 325.097656 48.449219 L 325.28125 48.191406 L 325.472656 47.824219 L 325.667969 47.382812 L 325.851562 46.921875 L 326.140625 46.117188 L 326.253906 45.765625 L 331.921875 54.597656 Z M 322.621094 49.800781 "/>
<path style="fill:none;stroke-width:1;stroke-linecap:square;stroke-linejoin:miter;stroke:rgb(14.999619%,22.700847%,50.000763%);stroke-opacity:0.7;stroke-miterlimit:3.25;" d="M 295.523438 45.738281 L 322.402344 53.332031 "/>
<path style=" stroke:none;fill-rule:evenodd;fill:rgb(14.999619%,22.700847%,50.000763%);fill-opacity:0.7;" d="M 320.777344 55.636719 L 321.003906 55.390625 L 321.515625 54.78125 L 321.796875 54.402344 L 322.0625 54.023438 L 322.273438 53.65625 L 322.402344 53.332031 L 322.453125 53.019531 L 322.464844 52.605469 L 322.441406 52.125 L 322.40625 51.628906 L 322.304688 50.777344 L 322.253906 50.414062 L 331.238281 55.828125 Z M 320.777344 55.636719 "/>
<path style="fill:none;stroke-width:1;stroke-linecap:square;stroke-linejoin:miter;stroke:rgb(14.999619%,22.700847%,50.000763%);stroke-opacity:0.7;stroke-miterlimit:3.25;" d="M 335.242188 59.605469 L 335.378906 59.980469 L 335.65625 60.632812 L 335.964844 61.269531 L 336.304688 61.886719 L 336.671875 62.492188 L 337.070312 63.078125 L 337.492188 63.644531 L 340.871094 67.929688 "/>
<path style=" stroke:none;fill-rule:evenodd;fill:rgb(14.999619%,22.700847%,50.000763%);fill-opacity:0.7;" d="M 338.25 69.015625 L 338.574219 68.921875 L 339.328125 68.667969 L 339.765625 68.496094 L 340.191406 68.308594 L 340.5625 68.101562 L 340.839844 67.894531 L 341.042969 67.65625 L 341.269531 67.304688 L 341.5 66.882812 L 341.726562 66.441406 L 342.085938 65.664062 L 342.234375 65.324219 L 347.082031 74.628906 Z M 338.25 69.015625 "/>
<path style="fill:none;stroke-width:1;stroke-linecap:square;stroke-linejoin:miter;stroke:rgb(14.999619%,22.700847%,50.000763%);stroke-opacity:0.7;stroke-miterlimit:3.25;" d="M 336.839844 58.34375 L 337.171875 58.566406 L 337.742188 58.988281 L 338.289062 59.4375 L 338.8125 59.910156 L 339.3125 60.410156 L 339.789062 60.933594 L 340.242188 61.476562 L 343.621094 65.765625 "/>
<path style=" stroke:none;fill-rule:evenodd;fill:rgb(14.999619%,22.700847%,50.000763%);fill-opacity:0.7;" d="M 340.859375 66.417969 L 341.191406 66.375 L 341.976562 66.246094 L 342.4375 66.144531 L 342.886719 66.027344 L 343.285156 65.886719 L 343.59375 65.722656 L 343.835938 65.519531 L 344.113281 65.210938 L 344.410156 64.832031 L 344.703125 64.429688 L 345.179688 63.71875 L 345.378906 63.410156 L 348.683594 73.367188 Z M 340.859375 66.417969 "/>
<path style="fill:none;stroke-width:1;stroke-linecap:square;stroke-linejoin:miter;stroke:rgb(14.999619%,22.700847%,50.000763%);stroke-opacity:0.7;stroke-miterlimit:3.25;" d="M 347.597656 78.582031 L 316.023438 112.925781 "/>
<path style=" stroke:none;fill-rule:evenodd;fill:rgb(14.999619%,22.700847%,50.000763%);fill-opacity:0.7;" d="M 314.695312 110.4375 L 314.816406 110.75 L 315.132812 111.480469 L 315.339844 111.902344 L 315.558594 112.3125 L 315.792969 112.667969 L 316.023438 112.925781 L 316.277344 113.113281 L 316.644531 113.308594 L 317.082031 113.507812 L 317.542969 113.695312 L 318.347656 113.992188 L 318.695312 114.109375 L 309.808594 119.6875 Z M 314.695312 110.4375 "/>
<path style="fill:none;stroke-width:1;stroke-linecap:square;stroke-linejoin:miter;stroke:rgb(14.999619%,22.700847%,50.000763%);stroke-opacity:0.7;stroke-miterlimit:3.25;" d="M 229.9375 68.347656 L 297.59375 114.996094 "/>
<path style=" stroke:none;fill-rule:evenodd;fill:rgb(14.999619%,22.700847%,50.000763%);fill-opacity:0.7;" d="M 295.3125 116.65625 L 295.605469 116.492188 L 296.285156 116.082031 L 296.675781 115.816406 L 297.046875 115.539062 L 297.367188 115.261719 L 297.59375 114.996094 L 297.742188 114.71875 L 297.886719 114.328125 L 298.019531 113.863281 L 298.144531 113.386719 L 298.324219 112.546875 L 298.394531 112.1875 L 305.152344 120.210938 Z M 295.3125 116.65625 "/>
<path style="fill:none;stroke-width:1;stroke-linecap:square;stroke-linejoin:miter;stroke:rgb(14.999619%,22.700847%,50.000763%);stroke-opacity:0.7;stroke-miterlimit:3.25;" d="M 304.871094 120.714844 L 304.429688 120.507812 L 303.789062 120.167969 L 303.167969 119.800781 L 302.5625 119.402344 L 301.976562 118.972656 L 301.414062 118.519531 L 300.871094 118.035156 L 296.570312 114.015625 "/>
<path style=" stroke:none;fill-rule:evenodd;fill:rgb(14.999619%,22.700847%,50.000763%);fill-opacity:0.7;" d="M 299.203125 112.964844 L 298.882812 113.054688 L 298.125 113.296875 L 297.683594 113.464844 L 297.257812 113.648438 L 296.882812 113.847656 L 296.601562 114.050781 L 296.394531 114.289062 L 296.164062 114.636719 L 295.925781 115.054688 L 295.695312 115.492188 L 295.324219 116.265625 L 295.175781 116.601562 L 290.449219 107.238281 Z M 299.203125 112.964844 "/>
<path style="fill:none;stroke-width:1;stroke-linecap:square;stroke-linejoin:miter;stroke:rgb(14.999619%,22.700847%,50.000763%);stroke-opacity:0.7;stroke-miterlimit:3.25;" d="M 306.261719 119.226562 L 306.027344 118.800781 L 305.644531 118.183594 L 305.234375 117.585938 L 304.796875 117.011719 L 304.328125 116.457031 L 303.835938 115.925781 L 303.320312 115.417969 L 299.015625 111.394531 "/>
<path style=" stroke:none;fill-rule:evenodd;fill:rgb(14.999619%,22.700847%,50.000763%);fill-opacity:0.7;" d="M 301.4375 109.914062 L 301.136719 110.058594 L 300.429688 110.429688 L 300.023438 110.667969 L 299.632812 110.917969 L 299.296875 111.179688 L 299.054688 111.425781 L 298.890625 111.695312 L 298.722656 112.078125 L 298.558594 112.53125 L 298.402344 113 L 298.171875 113.824219 L 298.078125 114.179688 L 291.839844 105.746094 Z M 301.4375 109.914062 "/>
<path style="fill:none;stroke-width:1;stroke-linecap:square;stroke-linejoin:miter;stroke:rgb(14.999619%,22.700847%,50.000763%);stroke-opacity:0.7;stroke-miterlimit:3.25;" d="M 291.03125 106.839844 L 320.167969 140.527344 "/>
<path style=" stroke:none;fill-rule:evenodd;fill:rgb(14.999619%,22.700847%,50.000763%);fill-opacity:0.7;" d="M 317.542969 141.558594 L 317.867188 141.476562 L 318.628906 141.246094 L 319.074219 141.089844 L 319.503906 140.917969 L 319.886719 140.726562 L 320.167969 140.527344 L 320.382812 140.296875 L 320.621094 139.953125 L 320.867188 139.539062 L 321.109375 139.105469 L 321.492188 138.339844 L 321.652344 138.007812 L 326.175781 147.472656 Z M 317.542969 141.558594 "/>
<path style="fill:none;stroke-width:1;stroke-linecap:square;stroke-linejoin:miter;stroke:rgb(14.999619%,22.700847%,50.000763%);stroke-opacity:0.7;stroke-miterlimit:3.25;" d="M 309.546875 124.46875 L 320.921875 139.925781 "/>
<path style=" stroke:none;fill-rule:evenodd;fill:rgb(14.999619%,22.700847%,50.000763%);fill-opacity:0.7;" d="M 318.226562 140.75 L 318.554688 140.691406 L 319.332031 140.523438 L 319.789062 140.398438 L 320.230469 140.261719 L 320.625 140.101562 L 320.921875 139.925781 L 321.15625 139.710938 L 321.417969 139.386719 L 321.695312 138.996094 L 321.96875 138.582031 L 322.414062 137.847656 L 322.597656 137.53125 L 326.367188 147.320312 Z M 318.226562 140.75 "/>
<path style="fill:none;stroke-width:1;stroke-linecap:square;stroke-linejoin:miter;stroke:rgb(14.999619%,22.700847%,50.000763%);stroke-opacity:0.7;stroke-miterlimit:3.25;" d="M 328.320312 152.921875 L 328.324219 153 L 328.375 153.804688 L 328.460938 154.605469 L 328.585938 155.402344 L 328.75 156.1875 L 328.953125 156.96875 L 329.191406 157.738281 L 329.46875 158.492188 L 332.359375 165.863281 "/>
<path style=" stroke:none;fill-rule:evenodd;fill:rgb(14.999619%,22.700847%,50.000763%);fill-opacity:0.7;" d="M 329.539062 166.210938 L 329.875 166.203125 L 330.667969 166.15625 L 331.136719 166.105469 L 331.597656 166.039062 L 332.011719 165.9375 L 332.332031 165.8125 L 332.59375 165.636719 L 332.90625 165.359375 L 333.238281 165.011719 L 333.574219 164.644531 L 334.125 163.988281 L 334.355469 163.703125 L 336.574219 173.957031 Z M 329.539062 166.210938 "/>
<path style="fill:none;stroke-width:1;stroke-linecap:square;stroke-linejoin:miter;stroke:rgb(14.999619%,22.700847%,50.000763%);stroke-opacity:0.7;stroke-miterlimit:3.25;" d="M 330.230469 152.171875 L 330.28125 152.234375 L 330.792969 152.855469 L 331.273438 153.503906 L 331.722656 154.171875 L 332.136719 154.859375 L 332.519531 155.570312 L 332.867188 156.296875 L 333.175781 157.039062 L 336.070312 164.410156 "/>
<path style=" stroke:none;fill-rule:evenodd;fill:rgb(14.999619%,22.700847%,50.000763%);fill-opacity:0.7;" d="M 333.238281 164.152344 L 333.566406 164.214844 L 334.355469 164.339844 L 334.824219 164.386719 L 335.285156 164.417969 L 335.710938 164.410156 L 336.054688 164.351562 L 336.347656 164.234375 L 336.707031 164.027344 L 337.109375 163.761719 L 337.511719 163.472656 L 338.191406 162.949219 L 338.476562 162.71875 L 338.480469 173.207031 Z M 333.238281 164.152344 "/>
<path style="fill:none;stroke-width:1;stroke-linecap:square;stroke-linejoin:miter;stroke:rgb(14.999619%,22.700847%,50.000763%);stroke-opacity:0.7;stroke-miterlimit:3.25;" d="M 335.5 176.09375 L 293.449219 173.1875 "/>
<path style=" stroke:none;fill-rule:evenodd;fill:rgb(14.999619%,22.700847%,50.000763%);fill-opacity:0.7;" d="M 294.570312 170.597656 L 294.398438 170.886719 L 294.023438 171.585938 L 293.824219 172.011719 L 293.640625 172.441406 L 293.511719 172.84375 L 293.449219 173.1875 L 293.464844 173.5 L 293.539062 173.910156 L 293.660156 174.378906 L 293.796875 174.855469 L 294.070312 175.667969 L 294.195312 176.011719 L 284.289062 172.554688 Z M 294.570312 170.597656 "/>
<path style="fill:none;stroke-width:1;stroke-linecap:square;stroke-linejoin:miter;stroke:rgb(14.999619%,22.700847%,50.000763%);stroke-opacity:0.7;stroke-miterlimit:3.25;" d="M 306.261719 124.714844 L 286.917969 161.46875 "/>
<path style=" stroke:none;fill-rule:evenodd;fill:rgb(14.999619%,22.700847%,50.000763%);fill-opacity:0.7;" d="M 285 159.398438 L 285.195312 159.671875 L 285.683594 160.296875 L 285.996094 160.652344 L 286.3125 160.992188 L 286.628906 161.273438 L 286.917969 161.46875 L 287.210938 161.582031 L 287.617188 161.679688 L 288.089844 161.757812 L 288.582031 161.824219 L 289.4375 161.902344 L 289.804688 161.929688 L 282.640625 169.59375 Z M 285 159.398438 "/>
<path style="fill:none;stroke-width:1;stroke-linecap:square;stroke-linejoin:miter;stroke:rgb(14.999619%,22.700847%,50.000763%);stroke-opacity:0.7;stroke-miterlimit:3.25;" d="M 281.308594 175.4375 L 281.355469 175.882812 L 281.441406 176.472656 L 281.558594 177.054688 L 281.703125 177.632812 L 281.875 178.203125 L 282.074219 178.765625 L 283.027344 181.253906 "/>
<path style=" stroke:none;fill-rule:evenodd;fill:rgb(14.999619%,22.700847%,50.000763%);fill-opacity:0.7;" d="M 280.203125 181.449219 L 280.539062 181.460938 L 281.332031 181.46875 L 281.804688 181.445312 L 282.265625 181.40625 L 282.6875 181.332031 L 283.015625 181.226562 L 283.289062 181.066406 L 283.613281 180.808594 L 283.96875 180.484375 L 284.328125 180.140625 L 284.917969 179.519531 L 285.167969 179.25 L 286.738281 189.621094 Z M 280.203125 181.449219 "/>
<path style="fill:none;stroke-width:1;stroke-linecap:square;stroke-linejoin:miter;stroke:rgb(14.999619%,22.700847%,50.000763%);stroke-opacity:0.7;stroke-miterlimit:3.25;" d="M 283.179688 174.722656 L 283.441406 175.082031 L 283.769531 175.582031 L 284.070312 176.09375 L 284.351562 176.621094 L 284.601562 177.160156 L 284.828125 177.710938 L 285.78125 180.203125 "/>
<path style=" stroke:none;fill-rule:evenodd;fill:rgb(14.999619%,22.700847%,50.000763%);fill-opacity:0.7;" d="M 282.953125 180.101562 L 283.285156 180.148438 L 284.074219 180.238281 L 284.542969 180.261719 L 285.007812 180.273438 L 285.433594 180.242188 L 285.773438 180.171875 L 286.058594 180.039062 L 286.410156 179.816406 L 286.796875 179.53125 L 287.1875 179.226562 L 287.84375 178.671875 L 288.117188 178.425781 L 288.605469 188.90625 Z M 282.953125 180.101562 "/>
<path style="fill:none;stroke-width:1;stroke-linecap:square;stroke-linejoin:miter;stroke:rgb(14.999619%,22.700847%,50.000763%);stroke-opacity:0.7;stroke-miterlimit:3.25;" d="M 285.648438 191.582031 L 238.183594 185.023438 "/>
<path style=" stroke:none;fill-rule:evenodd;fill:rgb(14.999619%,22.700847%,50.000763%);fill-opacity:0.7;" d="M 239.476562 182.515625 L 239.289062 182.792969 L 238.867188 183.46875 L 238.636719 183.878906 L 238.425781 184.292969 L 238.265625 184.6875 L 238.183594 185.023438 L 238.175781 185.339844 L 238.222656 185.753906 L 238.3125 186.226562 L 238.417969 186.710938 L 238.632812 187.539062 L 238.734375 187.894531 L 229.089844 183.765625 Z M 239.476562 182.515625 "/>
<path style="fill:none;stroke-width:1;stroke-linecap:square;stroke-linejoin:miter;stroke:rgb(14.999619%,22.700847%,50.000763%);stroke-opacity:0.7;stroke-miterlimit:3.25;" d="M 278.152344 172.945312 L 238.0625 180.941406 "/>
<path style=" stroke:none;fill-rule:evenodd;fill:rgb(14.999619%,22.700847%,50.000763%);fill-opacity:0.7;" d="M 238.460938 178.148438 L 238.375 178.46875 L 238.195312 179.246094 L 238.113281 179.710938 L 238.050781 180.171875 L 238.03125 180.59375 L 238.0625 180.941406 L 238.160156 181.238281 L 238.339844 181.617188 L 238.578125 182.035156 L 238.835938 182.457031 L 239.3125 183.171875 L 239.523438 183.472656 L 229.058594 182.734375 Z M 238.460938 178.148438 "/>
<path style="fill:none;stroke-width:1;stroke-linecap:square;stroke-linejoin:miter;stroke:rgb(14.999619%,22.700847%,50.000763%);stroke-opacity:0.7;stroke-miterlimit:3.25;" d="M 222.945312 183.800781 L 222.527344 183.839844 L 221.933594 183.859375 L 221.339844 183.855469 L 220.75 183.820312 L 220.160156 183.753906 L 219.578125 183.664062 L 217.046875 183.207031 "/>
<path style=" stroke:none;fill-rule:evenodd;fill:rgb(14.999619%,22.700847%,50.000763%);fill-opacity:0.7;" d="M 218.597656 180.835938 L 218.382812 181.09375 L 217.898438 181.726562 L 217.632812 182.113281 L 217.386719 182.507812 L 217.191406 182.886719 L 217.078125 183.214844 L 217.042969 183.527344 L 217.050781 183.941406 L 217.09375 184.421875 L 217.152344 184.914062 L 217.289062 185.761719 L 217.359375 186.121094 L 208.136719 181.117188 Z M 218.597656 180.835938 "/>
<path style="fill:none;stroke-width:1;stroke-linecap:square;stroke-linejoin:miter;stroke:rgb(14.999619%,22.700847%,50.000763%);stroke-opacity:0.7;stroke-miterlimit:3.25;" d="M 223.304688 181.835938 L 222.921875 181.652344 L 222.375 181.425781 L 221.820312 181.222656 L 221.253906 181.046875 L 220.679688 180.902344 L 220.097656 180.78125 L 217.570312 180.324219 "/>
<path style=" stroke:none;fill-rule:evenodd;fill:rgb(14.999619%,22.700847%,50.000763%);fill-opacity:0.7;" d="M 218.871094 177.808594 L 218.683594 178.085938 L 218.269531 178.765625 L 218.042969 179.179688 L 217.835938 179.59375 L 217.679688 179.988281 L 217.601562 180.328125 L 217.597656 180.644531 L 217.648438 181.054688 L 217.738281 181.527344 L 217.847656 182.011719 L 218.070312 182.839844 L 218.175781 183.191406 L 208.492188 179.152344 Z M 218.871094 177.808594 "/>
<path style="fill:none;stroke-width:1;stroke-linecap:square;stroke-linejoin:miter;stroke:rgb(14.999619%,22.700847%,50.000763%);stroke-opacity:0.7;stroke-miterlimit:3.25;" d="M 202.6875 178.148438 L 148.316406 149.113281 "/>
<path style=" stroke:none;fill-rule:evenodd;fill:rgb(14.999619%,22.700847%,50.000763%);fill-opacity:0.7;" d="M 150.394531 147.207031 L 150.121094 147.402344 L 149.492188 147.890625 L 149.136719 148.195312 L 148.792969 148.511719 L 148.507812 148.828125 L 148.316406 149.113281 L 148.199219 149.40625 L 148.101562 149.8125 L 148.019531 150.285156 L 147.949219 150.777344 L 147.863281 151.632812 L 147.835938 151.996094 L 140.214844 144.789062 Z M 150.394531 147.207031 "/>
<path style="fill-rule:evenodd;fill:rgb(65.859464%,70.9514%,88.999771%);fill-opacity:1;stroke-width:1;stroke-linecap:square;stroke-linejoin:miter;stroke:rgb(9.900053%,14.982834%,33.000687%);stroke-opacity:0.95;stroke-miterlimit:3.25;" d="M 140.582031 143.328125 C 140.582031 144.148438 140.253906 144.941406 139.671875 145.523438 C 139.089844 146.101562 138.300781 146.429688 137.476562 146.429688 C 136.65625 146.429688 135.867188 146.101562 135.285156 145.523438 C 134.703125 144.941406 134.375 144.148438 134.375 143.328125 C 134.375 142.503906 134.703125 141.714844 135.285156 141.132812 C 135.867188 140.550781 136.65625 140.226562 137.476562 140.226562 C 138.300781 140.226562 139.089844 140.550781 139.671875 141.132812 C 140.253906 141.714844 140.582031 142.503906 140.582031 143.328125 Z M 140.582031 143.328125 "/>
<path style="fill-rule:evenodd;fill:rgb(65.859464%,70.9514%,88.999771%);fill-opacity:1;stroke-width:1;stroke-linecap:square;stroke-linejoin:miter;stroke:rgb(9.900053%,14.982834%,33.000687%);stroke-opacity:0.95;stroke-miterlimit:3.25;" d="M 230.484375 66.585938 C 230.484375 67.410156 230.160156 68.199219 229.578125 68.78125 C 228.996094 69.359375 228.207031 69.6875 227.382812 69.6875 C 226.558594 69.6875 225.769531 69.359375 225.1875 68.78125 C 224.605469 68.199219 224.28125 67.410156 224.28125 66.585938 C 224.28125 65.761719 224.605469 64.972656 225.1875 64.390625 C 225.769531 63.808594 226.558594 63.484375 227.382812 63.484375 C 228.207031 63.484375 228.996094 63.808594 229.578125 64.390625 C 230.160156 64.972656 230.484375 65.761719 230.484375 66.585938 Z M 230.484375 66.585938 "/>
<path style="fill-rule:evenodd;fill:rgb(65.859464%,70.9514%,88.999771%);fill-opacity:1;stroke-width:1;stroke-linecap:square;stroke-linejoin:miter;stroke:rgb(9.900053%,14.982834%,33.000687%);stroke-opacity:0.95;stroke-miterlimit:3.25;" d="M 63.109375 79.839844 C 63.109375 80.664062 62.78125 81.453125 62.199219 82.035156 C 61.621094 82.617188 60.828125 82.945312 60.007812 82.945312 C 59.183594 82.945312 58.394531 82.617188 57.8125 82.035156 C 57.230469 81.453125 56.902344 80.664062 56.902344 79.839844 C 56.902344 79.019531 57.230469 78.230469 57.8125 77.648438 C 58.394531 77.066406 59.183594 76.738281 60.007812 76.738281 C 60.828125 76.738281 61.621094 77.066406 62.199219 77.648438 C 62.78125 78.230469 63.109375 79.019531 63.109375 79.839844 Z M 63.109375 79.839844 "/>
<path style="fill-rule:evenodd;fill:rgb(65.859464%,70.9514%,88.999771%);fill-opacity:1;stroke-width:1;stroke-linecap:square;stroke-linejoin:miter;stroke:rgb(9.900053%,14.982834%,33.000687%);stroke-opacity:0.95;stroke-miterlimit:3.25;" d="M 310.808594 121.96875 C 310.808594 122.792969 310.484375 123.582031 309.902344 124.164062 C 309.320312 124.746094 308.53125 125.074219 307.707031 125.074219 C 306.882812 125.074219 306.09375 124.746094 305.511719 124.164062 C 304.929688 123.582031 304.605469 122.792969 304.605469 121.96875 C 304.605469 121.148438 304.929688 120.359375 305.511719 119.777344 C 306.09375 119.195312 306.882812 118.867188 307.707031 118.867188 C 308.53125 118.867188 309.320312 119.195312 309.902344 119.777344 C 310.484375 120.359375 310.808594 121.148438 310.808594 121.96875 Z M 310.808594 121.96875 "/>
<path style="fill-rule:evenodd;fill:rgb(65.859464%,70.9514%,88.999771%);fill-opacity:1;stroke-width:1;stroke-linecap:square;stroke-linejoin:miter;stroke:rgb(9.900053%,14.982834%,33.000687%);stroke-opacity:0.95;stroke-miterlimit:3.25;" d="M 64.117188 168.472656 C 64.117188 169.296875 63.789062 170.085938 63.207031 170.667969 C 62.625 171.25 61.835938 171.574219 61.015625 171.574219 C 60.191406 171.574219 59.402344 171.25 58.820312 170.667969 C 58.238281 170.085938 57.910156 169.296875 57.910156 168.472656 C 57.910156 167.648438 58.238281 166.859375 58.820312 166.277344 C 59.402344 165.695312 60.191406 165.371094 61.015625 165.371094 C 61.835938 165.371094 62.625 165.695312 63.207031 166.277344 C 63.789062 166.859375 64.117188 167.648438 64.117188 168.472656 Z M 64.117188 168.472656 "/>
<path style="fill-rule:evenodd;fill:rgb(65.859464%,70.9514%,88.999771%);fill-opacity:1;stroke-width:1;stroke-linecap:square;stroke-linejoin:miter;stroke:rgb(9.900053%,14.982834%,33.000687%);stroke-opacity:0.95;stroke-miterlimit:3.25;" d="M 91.5625 29.304688 C 91.5625 30.125 91.234375 30.914062 90.652344 31.496094 C 90.070312 32.078125 89.28125 32.40625 88.460938 32.40625 C 87.636719 32.40625 86.847656 32.078125 86.265625 31.496094 C 85.683594 30.914062 85.355469 30.125 85.355469 29.304688 C 85.355469 28.480469 85.683594 27.691406 86.265625 27.109375 C 86.847656 26.527344 87.636719 26.199219 88.460938 26.199219 C 89.28125 26.199219 90.070312 26.527344 90.652344 27.109375 C 91.234375 27.691406 91.5625 28.480469 91.5625 29.304688 Z M 91.5625 29.304688 "/>
<path style="fill-rule:evenodd;fill:rgb(65.859464%,70.9514%,88.999771%);fill-opacity:1;stroke-width:1;stroke-linecap:square;stroke-linejoin:miter;stroke:rgb(9.900053%,14.982834%,33.000687%);stroke-opacity:0.95;stroke-miterlimit:3.25;" d="M 295.640625 44.894531 C 295.640625 45.71875 295.3125 46.507812 294.730469 47.089844 C 294.152344 47.671875 293.359375 47.996094 292.539062 47.996094 C 291.714844 47.996094 290.925781 47.671875 290.34375 47.089844 C 289.761719 46.507812 289.433594 45.71875 289.433594 44.894531 C 289.433594 44.070312 289.761719 43.28125 290.34375 42.699219 C 290.925781 42.117188 291.714844 41.792969 292.539062 41.792969 C 293.359375 41.792969 294.152344 42.117188 294.730469 42.699219 C 295.3125 43.28125 295.640625 44.070312 295.640625 44.894531 Z M 295.640625 44.894531 "/>
<path style="fill-rule:evenodd;fill:rgb(65.859464%,70.9514%,88.999771%);fill-opacity:1;stroke-width:1;stroke-linecap:square;stroke-linejoin:miter;stroke:rgb(9.900053%,14.982834%,33.000687%);stroke-opacity:0.95;stroke-miterlimit:3.25;" d="M 284.296875 172.339844 C 284.296875 173.160156 283.96875 173.949219 283.386719 174.53125 C 282.808594 175.113281 282.015625 175.441406 281.195312 175.441406 C 280.371094 175.441406 279.582031 175.113281 279 174.53125 C 278.417969 173.949219 278.09375 173.160156 278.09375 172.339844 C 278.09375 171.515625 278.417969 170.726562 279 170.144531 C 279.582031 169.5625 280.371094 169.234375 281.195312 169.234375 C 282.015625 169.234375 282.808594 169.5625 283.386719 170.144531 C 283.96875 170.726562 284.296875 171.515625 284.296875 172.339844 Z M 284.296875 172.339844 "/>
<path style="fill-rule:evenodd;fill:rgb(65.859464%,70.9514%,88.999771%);fill-opacity:1;stroke-width:1;stroke-linecap:square;stroke-linejoin:miter;stroke:rgb(9.900053%,14.982834%,33.000687%);stroke-opacity:0.95;stroke-miterlimit:3.25;" d="M 107.238281 197.972656 C 107.238281 198.796875 106.910156 199.585938 106.328125 200.167969 C 105.746094 200.75 104.957031 201.074219 104.132812 201.074219 C 103.3125 201.074219 102.523438 200.75 101.941406 200.167969 C 101.359375 199.585938 101.03125 198.796875 101.03125 197.972656 C 101.03125 197.148438 101.359375 196.359375 101.941406 195.777344 C 102.523438 195.195312 103.3125 194.871094 104.132812 194.871094 C 104.957031 194.871094 105.746094 195.195312 106.328125 195.777344 C 106.910156 196.359375 107.238281 197.148438 107.238281 197.972656 Z M 107.238281 197.972656 "/>
<path style="fill-rule:evenodd;fill:rgb(65.859464%,70.9514%,88.999771%);fill-opacity:1;stroke-width:1;stroke-linecap:square;stroke-linejoin:miter;stroke:rgb(9.900053%,14.982834%,33.000687%);stroke-opacity:0.95;stroke-miterlimit:3.25;" d="M 33.910156 136.125 C 33.910156 136.945312 33.585938 137.734375 33.003906 138.316406 C 32.421875 138.898438 31.632812 139.226562 30.808594 139.226562 C 29.984375 139.226562 29.195312 138.898438 28.613281 138.316406 C 28.03125 137.734375 27.707031 136.945312 27.707031 136.125 C 27.707031 135.300781 28.03125 134.511719 28.613281 133.929688 C 29.195312 133.347656 29.984375 133.019531 30.808594 133.019531 C 31.632812 133.019531 32.421875 133.347656 33.003906 133.929688 C 33.585938 134.511719 33.910156 135.300781 33.910156 136.125 Z M 33.910156 136.125 "/>
<path style="fill-rule:evenodd;fill:rgb(65.859464%,70.9514%,88.999771%);fill-opacity:1;stroke-width:1;stroke-linecap:square;stroke-linejoin:miter;stroke:rgb(9.900053%,14.982834%,33.000687%);stroke-opacity:0.95;stroke-miterlimit:3.25;" d="M 46.054688 50.652344 C 46.054688 51.476562 45.726562 52.265625 45.144531 52.847656 C 44.5625 53.429688 43.773438 53.757812 42.953125 53.757812 C 42.128906 53.757812 41.339844 53.429688 40.757812 52.847656 C 40.175781 52.265625 39.847656 51.476562 39.847656 50.652344 C 39.847656 49.832031 40.175781 49.042969 40.757812 48.460938 C 41.339844 47.878906 42.128906 47.550781 42.953125 47.550781 C 43.773438 47.550781 44.5625 47.878906 45.144531 48.460938 C 45.726562 49.042969 46.054688 49.832031 46.054688 50.652344 Z M 46.054688 50.652344 "/>
<path style="fill-rule:evenodd;fill:rgb(65.859464%,70.9514%,88.999771%);fill-opacity:1;stroke-width:1;stroke-linecap:square;stroke-linejoin:miter;stroke:rgb(9.900053%,14.982834%,33.000687%);stroke-opacity:0.95;stroke-miterlimit:3.25;" d="M 144.9375 22.699219 C 144.9375 23.519531 144.609375 24.3125 144.027344 24.890625 C 143.445312 25.472656 142.65625 25.800781 141.832031 25.800781 C 141.011719 25.800781 140.222656 25.472656 139.640625 24.890625 C 139.058594 24.3125 138.730469 23.519531 138.730469 22.699219 C 138.730469 21.875 139.058594 21.085938 139.640625 20.503906 C 140.222656 19.921875 141.011719 19.59375 141.832031 19.59375 C 142.65625 19.59375 143.445312 19.921875 144.027344 20.503906 C 144.609375 21.085938 144.9375 21.875 144.9375 22.699219 Z M 144.9375 22.699219 "/>
<path style="fill-rule:evenodd;fill:rgb(65.859464%,70.9514%,88.999771%);fill-opacity:1;stroke-width:1;stroke-linecap:square;stroke-linejoin:miter;stroke:rgb(9.900053%,14.982834%,33.000687%);stroke-opacity:0.95;stroke-miterlimit:3.25;" d="M 243.992188 38.769531 C 243.992188 39.589844 243.664062 40.378906 243.085938 40.960938 C 242.503906 41.542969 241.714844 41.871094 240.890625 41.871094 C 240.066406 41.871094 239.277344 41.542969 238.695312 40.960938 C 238.113281 40.378906 237.789062 39.589844 237.789062 38.769531 C 237.789062 37.945312 238.113281 37.15625 238.695312 36.574219 C 239.277344 35.992188 240.066406 35.664062 240.890625 35.664062 C 241.714844 35.664062 242.503906 35.992188 243.085938 36.574219 C 243.664062 37.15625 243.992188 37.945312 243.992188 38.769531 Z M 243.992188 38.769531 "/>
<path style="fill-rule:evenodd;fill:rgb(65.859464%,70.9514%,88.999771%);fill-opacity:1;stroke-width:1;stroke-linecap:square;stroke-linejoin:miter;stroke:rgb(9.900053%,14.982834%,33.000687%);stroke-opacity:0.95;stroke-miterlimit:3.25;" d="M 337.328125 56.671875 C 337.328125 57.496094 337 58.285156 336.421875 58.867188 C 335.839844 59.449219 335.050781 59.777344 334.226562 59.777344 C 333.402344 59.777344 332.613281 59.449219 332.03125 58.867188 C 331.449219 58.285156 331.125 57.496094 331.125 56.671875 C 331.125 55.851562 331.449219 55.0625 332.03125 54.480469 C 332.613281 53.898438 333.402344 53.570312 334.226562 53.570312 C 335.050781 53.570312 335.839844 53.898438 336.421875 54.480469 C 337 55.0625 337.328125 55.851562 337.328125 56.671875 Z M 337.328125 56.671875 "/>
<path style="fill-rule:evenodd;fill:rgb(65.859464%,70.9514%,88.999771%);fill-opacity:1;stroke-width:1;stroke-linecap:square;stroke-linejoin:miter;stroke:rgb(9.900053%,14.982834%,33.000687%);stroke-opacity:0.95;stroke-miterlimit:3.25;" d="M 331.308594 149.820312 C 331.308594 150.640625 330.980469 151.433594 330.398438 152.011719 C 329.816406 152.59375 329.027344 152.921875 328.207031 152.921875 C 327.382812 152.921875 326.59375 152.59375 326.011719 152.011719 C 325.429688 151.433594 325.101562 150.640625 325.101562 149.820312 C 325.101562 148.996094 325.429688 148.207031 326.011719 147.625 C 326.59375 147.042969 327.382812 146.714844 328.207031 146.714844 C 329.027344 146.714844 329.816406 147.042969 330.398438 147.625 C 330.980469 148.207031 331.308594 148.996094 331.308594 149.820312 Z M 331.308594 149.820312 "/>
<path style="fill-rule:evenodd;fill:rgb(65.859464%,70.9514%,88.999771%);fill-opacity:1;stroke-width:1;stroke-linecap:square;stroke-linejoin:miter;stroke:rgb(9.900053%,14.982834%,33.000687%);stroke-opacity:0.95;stroke-miterlimit:3.25;" d="M 229.117188 183.34375 C 229.117188 184.164062 228.789062 184.953125 228.207031 185.535156 C 227.625 186.117188 226.835938 186.445312 226.015625 186.445312 C 225.191406 186.445312 224.402344 186.117188 223.820312 185.535156 C 223.238281 184.953125 222.910156 184.164062 222.910156 183.34375 C 222.910156 182.519531 223.238281 181.730469 223.820312 181.148438 C 224.402344 180.566406 225.191406 180.238281 226.015625 180.238281 C 226.835938 180.238281 227.625 180.566406 228.207031 181.148438 C 228.789062 181.730469 229.117188 182.519531 229.117188 183.34375 Z M 229.117188 183.34375 "/>
<path style="fill-rule:evenodd;fill:rgb(65.859464%,70.9514%,88.999771%);fill-opacity:1;stroke-width:1;stroke-linecap:square;stroke-linejoin:miter;stroke:rgb(9.900053%,14.982834%,33.000687%);stroke-opacity:0.95;stroke-miterlimit:3.25;" d="M 135.417969 213.9375 C 135.417969 214.761719 135.089844 215.550781 134.507812 216.132812 C 133.925781 216.714844 133.136719 217.042969 132.316406 217.042969 C 131.492188 217.042969 130.703125 216.714844 130.121094 216.132812 C 129.539062 215.550781 129.210938 214.761719 129.210938 213.9375 C 129.210938 213.117188 129.539062 212.328125 130.121094 211.746094 C 130.703125 211.164062 131.492188 210.835938 132.316406 210.835938 C 133.136719 210.835938 133.925781 211.164062 134.507812 211.746094 C 135.089844 212.328125 135.417969 213.117188 135.417969 213.9375 Z M 135.417969 213.9375 "/>
<path style="fill-rule:evenodd;fill:rgb(65.859464%,70.9514%,88.999771%);fill-opacity:1;stroke-width:1;stroke-linecap:square;stroke-linejoin:miter;stroke:rgb(9.900053%,14.982834%,33.000687%);stroke-opacity:0.95;stroke-miterlimit:3.25;" d="M 85.785156 197.878906 C 85.785156 198.703125 85.460938 199.492188 84.878906 200.074219 C 84.296875 200.652344 83.507812 200.980469 82.683594 200.980469 C 81.859375 200.980469 81.070312 200.652344 80.488281 200.074219 C 79.90625 199.492188 79.582031 198.703125 79.582031 197.878906 C 79.582031 197.054688 79.90625 196.265625 80.488281 195.683594 C 81.070312 195.101562 81.859375 194.777344 82.683594 194.777344 C 83.507812 194.777344 84.296875 195.101562 84.878906 195.683594 C 85.460938 196.265625 85.785156 197.054688 85.785156 197.878906 Z M 85.785156 197.878906 "/>
<path style="fill-rule:evenodd;fill:rgb(65.859464%,70.9514%,88.999771%);fill-opacity:1;stroke-width:1;stroke-linecap:square;stroke-linejoin:miter;stroke:rgb(9.900053%,14.982834%,33.000687%);stroke-opacity:0.95;stroke-miterlimit:3.25;" d="M 76.578125 150.664062 C 76.578125 151.488281 76.253906 152.277344 75.671875 152.859375 C 75.089844 153.441406 74.300781 153.769531 73.476562 153.769531 C 72.652344 153.769531 71.863281 153.441406 71.28125 152.859375 C 70.699219 152.277344 70.375 151.488281 70.375 150.664062 C 70.375 149.84375 70.699219 149.054688 71.28125 148.472656 C 71.863281 147.890625 72.652344 147.5625 73.476562 147.5625 C 74.300781 147.5625 75.089844 147.890625 75.671875 148.472656 C 76.253906 149.054688 76.578125 149.84375 76.578125 150.664062 Z M 76.578125 150.664062 "/>
<path style="fill-rule:evenodd;fill:rgb(65.859464%,70.9514%,88.999771%);fill-opacity:1;stroke-width:1;stroke-linecap:square;stroke-linejoin:miter;stroke:rgb(9.900053%,14.982834%,33.000687%);stroke-opacity:0.95;stroke-miterlimit:3.25;" d="M 13.40625 126.789062 C 13.40625 127.613281 13.078125 128.402344 12.496094 128.984375 C 11.914062 129.566406 11.125 129.894531 10.304688 129.894531 C 9.480469 129.894531 8.691406 129.566406 8.109375 128.984375 C 7.527344 128.402344 7.199219 127.613281 7.199219 126.789062 C 7.199219 125.96875 7.527344 125.179688 8.109375 124.597656 C 8.691406 124.015625 9.480469 123.6875 10.304688 123.6875 C 11.125 123.6875 11.914062 124.015625 12.496094 124.597656 C 13.078125 125.179688 13.40625 125.96875 13.40625 126.789062 Z M 13.40625 126.789062 "/>
<path style="fill-rule:evenodd;fill:rgb(65.859464%,70.9514%,88.999771%);fill-opacity:1;stroke-width:1;stroke-linecap:square;stroke-linejoin:miter;stroke:rgb(9.900053%,14.982834%,33.000687%);stroke-opacity:0.95;stroke-miterlimit:3.25;" d="M 83.703125 98.332031 C 83.703125 99.152344 83.375 99.945312 82.792969 100.523438 C 82.210938 101.105469 81.421875 101.433594 80.597656 101.433594 C 79.777344 101.433594 78.988281 101.105469 78.40625 100.523438 C 77.824219 99.945312 77.496094 99.152344 77.496094 98.332031 C 77.496094 97.507812 77.824219 96.71875 78.40625 96.136719 C 78.988281 95.554688 79.777344 95.226562 80.597656 95.226562 C 81.421875 95.226562 82.210938 95.554688 82.792969 96.136719 C 83.375 96.71875 83.703125 97.507812 83.703125 98.332031 Z M 83.703125 98.332031 "/>
<path style="fill-rule:evenodd;fill:rgb(65.859464%,70.9514%,88.999771%);fill-opacity:1;stroke-width:1;stroke-linecap:square;stroke-linejoin:miter;stroke:rgb(9.900053%,14.982834%,33.000687%);stroke-opacity:0.95;stroke-miterlimit:3.25;" d="M 34.570312 24.113281 C 34.570312 24.933594 34.242188 25.722656 33.660156 26.304688 C 33.078125 26.886719 32.289062 27.214844 31.464844 27.214844 C 30.644531 27.214844 29.855469 26.886719 29.273438 26.304688 C 28.691406 25.722656 28.363281 24.933594 28.363281 24.113281 C 28.363281 23.289062 28.691406 22.5 29.273438 21.917969 C 29.855469 21.335938 30.644531 21.007812 31.464844 21.007812 C 32.289062 21.007812 33.078125 21.335938 33.660156 21.917969 C 34.242188 22.5 34.570312 23.289062 34.570312 24.113281 Z M 34.570312 24.113281 "/>
<path style="fill-rule:evenodd;fill:rgb(65.859464%,70.9514%,88.999771%);fill-opacity:1;stroke-width:1;stroke-linecap:square;stroke-linejoin:miter;stroke:rgb(9.900053%,14.982834%,33.000687%);stroke-opacity:0.95;stroke-miterlimit:3.25;" d="M 83.253906 10.015625 C 83.253906 10.835938 82.929688 11.625 82.347656 12.207031 C 81.765625 12.789062 80.976562 13.117188 80.152344 13.117188 C 79.328125 13.117188 78.539062 12.789062 77.957031 12.207031 C 77.375 11.625 77.050781 10.835938 77.050781 10.015625 C 77.050781 9.191406 77.375 8.402344 77.957031 7.820312 C 78.539062 7.238281 79.328125 6.910156 80.152344 6.910156 C 80.976562 6.910156 81.765625 7.238281 82.347656 7.820312 C 82.929688 8.402344 83.253906 9.191406 83.253906 10.015625 Z M 83.253906 10.015625 "/>
<path style="fill-rule:evenodd;fill:rgb(65.859464%,70.9514%,88.999771%);fill-opacity:1;stroke-width:1;stroke-linecap:square;stroke-linejoin:miter;stroke:rgb(9.900053%,14.982834%,33.000687%);stroke-opacity:0.95;stroke-miterlimit:3.25;" d="M 166.300781 20.761719 C 166.300781 21.585938 165.972656 22.375 165.390625 22.957031 C 164.808594 23.539062 164.019531 23.867188 163.199219 23.867188 C 162.375 23.867188 161.585938 23.539062 161.003906 22.957031 C 160.421875 22.375 160.09375 21.585938 160.09375 20.761719 C 160.09375 19.941406 160.421875 19.152344 161.003906 18.570312 C 161.585938 17.988281 162.375 17.660156 163.199219 17.660156 C 164.019531 17.660156 164.808594 17.988281 165.390625 18.570312 C 165.972656 19.152344 166.300781 19.941406 166.300781 20.761719 Z M 166.300781 20.761719 "/>
<path style="fill-rule:evenodd;fill:rgb(65.859464%,70.9514%,88.999771%);fill-opacity:1;stroke-width:1;stroke-linecap:square;stroke-linejoin:miter;stroke:rgb(9.900053%,14.982834%,33.000687%);stroke-opacity:0.95;stroke-miterlimit:3.25;" d="M 195.335938 87.582031 C 195.335938 88.40625 195.007812 89.195312 194.425781 89.777344 C 193.84375 90.359375 193.054688 90.6875 192.234375 90.6875 C 191.410156 90.6875 190.621094 90.359375 190.039062 89.777344 C 189.457031 89.195312 189.128906 88.40625 189.128906 87.582031 C 189.128906 86.761719 189.457031 85.972656 190.039062 85.390625 C 190.621094 84.808594 191.410156 84.480469 192.234375 84.480469 C 193.054688 84.480469 193.84375 84.808594 194.425781 85.390625 C 195.007812 85.972656 195.335938 86.761719 195.335938 87.582031 Z M 195.335938 87.582031 "/>
<path style="fill-rule:evenodd;fill:rgb(65.859464%,70.9514%,88.999771%);fill-opacity:1;stroke-width:1;stroke-linecap:square;stroke-linejoin:miter;stroke:rgb(9.900053%,14.982834%,33.000687%);stroke-opacity:0.95;stroke-miterlimit:3.25;" d="M 263.789062 11.285156 C 263.789062 12.109375 263.464844 12.898438 262.882812 13.480469 C 262.300781 14.0625 261.511719 14.390625 260.6875 14.390625 C 259.863281 14.390625 259.074219 14.0625 258.492188 13.480469 C 257.910156 12.898438 257.585938 12.109375 257.585938 11.285156 C 257.585938 10.464844 257.910156 9.675781 258.492188 9.09375 C 259.074219 8.511719 259.863281 8.183594 260.6875 8.183594 C 261.511719 8.183594 262.300781 8.511719 262.882812 9.09375 C 263.464844 9.675781 263.789062 10.464844 263.789062 11.285156 Z M 263.789062 11.285156 "/>
<path style="fill-rule:evenodd;fill:rgb(65.859464%,70.9514%,88.999771%);fill-opacity:1;stroke-width:1;stroke-linecap:square;stroke-linejoin:miter;stroke:rgb(9.900053%,14.982834%,33.000687%);stroke-opacity:0.95;stroke-miterlimit:3.25;" d="M 300.574219 23.5625 C 300.574219 24.386719 300.246094 25.175781 299.664062 25.757812 C 299.082031 26.339844 298.292969 26.664062 297.46875 26.664062 C 296.648438 26.664062 295.859375 26.339844 295.277344 25.757812 C 294.695312 25.175781 294.367188 24.386719 294.367188 23.5625 C 294.367188 22.738281 294.695312 21.949219 295.277344 21.367188 C 295.859375 20.785156 296.648438 20.460938 297.46875 20.460938 C 298.292969 20.460938 299.082031 20.785156 299.664062 21.367188 C 300.246094 21.949219 300.574219 22.738281 300.574219 23.5625 Z M 300.574219 23.5625 "/>
<path style="fill-rule:evenodd;fill:rgb(65.859464%,70.9514%,88.999771%);fill-opacity:1;stroke-width:1;stroke-linecap:square;stroke-linejoin:miter;stroke:rgb(9.900053%,14.982834%,33.000687%);stroke-opacity:0.95;stroke-miterlimit:3.25;" d="M 352.800781 76.300781 C 352.800781 77.121094 352.472656 77.910156 351.890625 78.492188 C 351.308594 79.074219 350.519531 79.402344 349.695312 79.402344 C 348.875 79.402344 348.085938 79.074219 347.503906 78.492188 C 346.921875 77.910156 346.59375 77.121094 346.59375 76.300781 C 346.59375 75.476562 346.921875 74.6875 347.503906 74.105469 C 348.085938 73.523438 348.875 73.195312 349.695312 73.195312 C 350.519531 73.195312 351.308594 73.523438 351.890625 74.105469 C 352.472656 74.6875 352.800781 75.476562 352.800781 76.300781 Z M 352.800781 76.300781 "/>
<path style="fill-rule:evenodd;fill:rgb(65.859464%,70.9514%,88.999771%);fill-opacity:1;stroke-width:1;stroke-linecap:square;stroke-linejoin:miter;stroke:rgb(9.900053%,14.982834%,33.000687%);stroke-opacity:0.95;stroke-miterlimit:3.25;" d="M 292.105469 104.492188 C 292.105469 105.3125 291.777344 106.105469 291.195312 106.683594 C 290.613281 107.265625 289.824219 107.59375 289.003906 107.59375 C 288.179688 107.59375 287.390625 107.265625 286.808594 106.683594 C 286.226562 106.105469 285.898438 105.3125 285.898438 104.492188 C 285.898438 103.667969 286.226562 102.878906 286.808594 102.296875 C 287.390625 101.714844 288.179688 101.390625 289.003906 101.390625 C 289.824219 101.390625 290.613281 101.714844 291.195312 102.296875 C 291.777344 102.878906 292.105469 103.667969 292.105469 104.492188 Z M 292.105469 104.492188 "/>
<path style="fill-rule:evenodd;fill:rgb(65.859464%,70.9514%,88.999771%);fill-opacity:1;stroke-width:1;stroke-linecap:square;stroke-linejoin:miter;stroke:rgb(9.900053%,14.982834%,33.000687%);stroke-opacity:0.95;stroke-miterlimit:3.25;" d="M 341.699219 176.308594 C 341.699219 177.132812 341.375 177.921875 340.792969 178.503906 C 340.210938 179.085938 339.421875 179.410156 338.597656 179.410156 C 337.773438 179.410156 336.984375 179.085938 336.402344 178.503906 C 335.820312 177.921875 335.496094 177.132812 335.496094 176.308594 C 335.496094 175.484375 335.820312 174.695312 336.402344 174.113281 C 336.984375 173.53125 337.773438 173.207031 338.597656 173.207031 C 339.421875 173.207031 340.210938 173.53125 340.792969 174.113281 C 341.375 174.695312 341.699219 175.484375 341.699219 176.308594 Z M 341.699219 176.308594 "/>
<path style="fill-rule:evenodd;fill:rgb(65.859464%,70.9514%,88.999771%);fill-opacity:1;stroke-width:1;stroke-linecap:square;stroke-linejoin:miter;stroke:rgb(9.900053%,14.982834%,33.000687%);stroke-opacity:0.95;stroke-miterlimit:3.25;" d="M 291.824219 192.007812 C 291.824219 192.828125 291.496094 193.617188 290.914062 194.199219 C 290.332031 194.78125 289.542969 195.109375 288.722656 195.109375 C 287.898438 195.109375 287.109375 194.78125 286.527344 194.199219 C 285.945312 193.617188 285.617188 192.828125 285.617188 192.007812 C 285.617188 191.183594 285.945312 190.394531 286.527344 189.8125 C 287.109375 189.230469 287.898438 188.902344 288.722656 188.902344 C 289.542969 188.902344 290.332031 189.230469 290.914062 189.8125 C 291.496094 190.394531 291.824219 191.183594 291.824219 192.007812 Z M 291.824219 192.007812 "/>
<path style="fill-rule:evenodd;fill:rgb(65.859464%,70.9514%,88.999771%);fill-opacity:1;stroke-width:1;stroke-linecap:square;stroke-linejoin:miter;stroke:rgb(9.900053%,14.982834%,33.000687%);stroke-opacity:0.95;stroke-miterlimit:3.25;" d="M 208.527344 179.609375 C 208.527344 180.433594 208.203125 181.222656 207.621094 181.804688 C 207.039062 182.386719 206.25 182.714844 205.425781 182.714844 C 204.601562 182.714844 203.8125 182.386719 203.230469 181.804688 C 202.648438 181.222656 202.324219 180.433594 202.324219 179.609375 C 202.324219 178.789062 202.648438 178 203.230469 177.417969 C 203.8125 176.835938 204.601562 176.507812 205.425781 176.507812 C 206.25 176.507812 207.039062 176.835938 207.621094 177.417969 C 208.203125 178 208.527344 178.789062 208.527344 179.609375 Z M 208.527344 179.609375 "/>
</g>
</svg>
